G04 #@! TF.FileFunction,Profile,NP*
%FSLAX46Y46*%
G04 Gerber Fmt 4.6, Leading zero omitted, Abs format (unit mm)*
G04 Created by KiCad (PCBNEW 4.0.7) date 06/27/18 00:10:41*
%MOMM*%
%LPD*%
G01*
G04 APERTURE LIST*
%ADD10C,0.150000*%
%ADD11C,0.100000*%
G04 APERTURE END LIST*
D10*
D11*
X128501100Y-102003600D02*
X124689338Y-102003600D01*
X128501100Y-102003600D02*
G75*
G02X130501100Y-104003600I0J-2000000D01*
G01*
X130501100Y-106003600D02*
X130501100Y-104003600D01*
X130501100Y-106003600D02*
G75*
G02X128501100Y-108003600I-2000000J0D01*
G01*
X124689338Y-108003600D02*
X128501100Y-108003600D01*
X172165419Y-109003600D02*
G75*
G02X124689338Y-108003600I-23664319J4000000D01*
G01*
X171501100Y-109003600D02*
X172165419Y-109003600D01*
X171501100Y-109003600D02*
G75*
G02X170501100Y-108003600I0J1000000D01*
G01*
X170501100Y-102003600D02*
X170501100Y-108003600D01*
X170501100Y-102003600D02*
G75*
G02X171501100Y-101003600I1000000J0D01*
G01*
X172165419Y-101003600D02*
X171501100Y-101003600D01*
X124689338Y-102003600D02*
G75*
G02X172165419Y-101003600I23811762J-3000000D01*
G01*
X134601100Y-90003600D02*
G75*
G03X134601100Y-90003600I-1100000J0D01*
G01*
X134601100Y-120003600D02*
G75*
G03X134601100Y-120003600I-1100000J0D01*
G01*
X164601100Y-120003600D02*
G75*
G03X164601100Y-120003600I-1100000J0D01*
G01*
X164601100Y-90003600D02*
G75*
G03X164601100Y-90003600I-1100000J0D01*
G01*
X-2147483648Y-2147483648D02*
X-2147483648Y-2147483648D01*
X-2147483648Y-2147483648D02*
X-2147483648Y-2147483648D01*
X-2147483648Y-2147483648D02*
X-2147483648Y-2147483648D01*
X-2147483648Y-2147483648D02*
X-2147483648Y-2147483648D01*
X-2147483648Y-2147483648D02*
X-2147483648Y-2147483648D01*
M02*
