G04 #@! TF.FileFunction,Copper,L2,Bot,Signal*
%FSLAX46Y46*%
G04 Gerber Fmt 4.6, Leading zero omitted, Abs format (unit mm)*
G04 Created by KiCad (PCBNEW 4.0.7) date 06/27/18 00:10:41*
%MOMM*%
%LPD*%
G01*
G04 APERTURE LIST*
%ADD10C,0.150000*%
%ADD11R,0.750000X1.200000*%
%ADD12R,3.500000X3.500000*%
%ADD13R,1.526000X0.650000*%
%ADD14R,1.400000X0.600000*%
%ADD15R,0.500000X0.750000*%
%ADD16R,1.200000X0.900000*%
%ADD17R,0.900000X1.200000*%
%ADD18R,1.200000X0.750000*%
%ADD19R,1.500000X3.200000*%
%ADD20R,0.900000X1.040000*%
%ADD21R,1.600000X0.300000*%
%ADD22R,1.800000X0.800000*%
%ADD23C,0.650000*%
%ADD24R,1.700000X1.200000*%
%ADD25O,1.700000X1.200000*%
%ADD26R,0.650000X1.100000*%
%ADD27R,1.700000X1.700000*%
%ADD28O,1.700000X1.700000*%
%ADD29C,0.600000*%
%ADD30C,0.250000*%
%ADD31C,0.200000*%
G04 APERTURE END LIST*
D10*
D11*
X163220000Y-96662200D03*
X163220000Y-98562200D03*
X162966000Y-114315000D03*
X162966000Y-116215000D03*
X153865000Y-114869000D03*
X153865000Y-116769000D03*
X155283000Y-114886000D03*
X155283000Y-116786000D03*
D12*
X144961000Y-85166200D03*
X151761000Y-85166200D03*
D13*
X151073000Y-121107000D03*
X151073000Y-122377000D03*
X151073000Y-123647000D03*
X151073000Y-124917000D03*
X145649000Y-124917000D03*
X145649000Y-123647000D03*
X145649000Y-122377000D03*
X145649000Y-121107000D03*
D14*
X136697000Y-95641200D03*
X136697000Y-94691200D03*
X136697000Y-93741200D03*
X139197000Y-93741200D03*
X139197000Y-95641200D03*
D15*
X139359000Y-101887000D03*
X138059000Y-101887000D03*
X138709000Y-99687000D03*
D16*
X163263000Y-110439000D03*
X165463000Y-110439000D03*
X157802000Y-112471000D03*
X160002000Y-112471000D03*
D17*
X167157000Y-104132000D03*
X167157000Y-106332000D03*
X137947000Y-103624000D03*
X137947000Y-105824000D03*
X136169000Y-114800000D03*
X136169000Y-117000000D03*
X139598000Y-105824000D03*
X139598000Y-103624000D03*
D16*
X139301000Y-97358200D03*
X137101000Y-97358200D03*
D18*
X160868000Y-110439000D03*
X158968000Y-110439000D03*
D19*
X153441000Y-119869000D03*
X153441000Y-123869000D03*
X156108000Y-119869000D03*
X156108000Y-123869000D03*
X143281000Y-119869000D03*
X143281000Y-123869000D03*
X140614000Y-119869000D03*
X140614000Y-123869000D03*
D11*
X140868000Y-93741200D03*
X140868000Y-95641200D03*
D18*
X134960000Y-93802200D03*
X133060000Y-93802200D03*
D20*
X133045000Y-112852000D03*
X136245000Y-112852000D03*
D21*
X150161000Y-101478000D03*
X146561000Y-101478000D03*
X150161000Y-101978000D03*
X146561000Y-101978000D03*
X150161000Y-102478000D03*
X146561000Y-102478000D03*
X150161000Y-102978000D03*
X146561000Y-102978000D03*
X150161000Y-103478000D03*
X146561000Y-103478000D03*
X150161000Y-103978000D03*
X146561000Y-103978000D03*
X150161000Y-104478000D03*
X146561000Y-104478000D03*
X150161000Y-104978000D03*
X146561000Y-104978000D03*
X150161000Y-105478000D03*
X146561000Y-105478000D03*
X150161000Y-105978000D03*
X146561000Y-105978000D03*
X150161000Y-106478000D03*
X146561000Y-106478000D03*
X150161000Y-106978000D03*
X146561000Y-106978000D03*
X150161000Y-107478000D03*
X146561000Y-107478000D03*
X150161000Y-107978000D03*
X146561000Y-107978000D03*
X150161000Y-108478000D03*
X146561000Y-108478000D03*
D22*
X148361000Y-99728000D03*
X148361000Y-110228000D03*
D23*
X149861000Y-100428000D03*
X149861000Y-109528000D03*
D24*
X132613000Y-104089000D03*
D25*
X132613000Y-106089000D03*
D24*
X130327000Y-114503000D03*
D25*
X130327000Y-112503000D03*
D15*
X138059000Y-107561000D03*
X139359000Y-107561000D03*
X138709000Y-109761000D03*
D26*
X135351000Y-110346000D03*
X133431000Y-110346000D03*
X134391000Y-108246000D03*
D27*
X142011000Y-89992200D03*
D28*
X144551000Y-89992200D03*
X147091000Y-89992200D03*
X149631000Y-89992200D03*
X152171000Y-89992200D03*
X154711000Y-89992200D03*
D21*
X155936000Y-107455000D03*
X155936000Y-106819000D03*
X155936000Y-106185000D03*
X155936000Y-105549000D03*
X155936000Y-104915000D03*
X155936000Y-104279000D03*
X155936000Y-103645000D03*
X155936000Y-103009000D03*
X155936000Y-102375000D03*
X155936000Y-101739000D03*
X161360000Y-101739000D03*
X161360000Y-102375000D03*
X161360000Y-103009000D03*
X161360000Y-103645000D03*
X161360000Y-104279000D03*
X161360000Y-104915000D03*
X161360000Y-105549000D03*
X161360000Y-106185000D03*
X161360000Y-106819000D03*
X161360000Y-107455000D03*
D29*
X163166500Y-95462100D03*
X161095100Y-114775000D03*
X161390700Y-112310900D03*
X167051200Y-101873000D03*
X150401100Y-113153400D03*
X144478300Y-109294400D03*
X160576500Y-98388600D03*
X159290300Y-99535700D03*
X150790400Y-111289700D03*
X154791600Y-112674800D03*
X134831400Y-96259800D03*
X154584200Y-109809300D03*
X144478300Y-100963600D03*
X153530600Y-108919500D03*
X144466900Y-101923000D03*
X152084200Y-103015100D03*
X144485200Y-102825700D03*
X152084200Y-103657300D03*
X144595900Y-103712500D03*
X152330800Y-102135900D03*
X155179200Y-98598900D03*
X153158300Y-102481900D03*
X153387700Y-99145400D03*
X152980300Y-101564100D03*
X143433400Y-100866600D03*
X139559100Y-99602200D03*
X144391100Y-105631800D03*
X141143700Y-104481800D03*
X144410800Y-106514600D03*
X142603700Y-107131600D03*
X142225200Y-107968800D03*
X144205500Y-107906100D03*
X151545700Y-110795000D03*
X167690700Y-107714100D03*
D30*
X136207000Y-113247000D02*
X136245000Y-112852000D01*
X136207000Y-113372000D02*
X136207000Y-113247000D01*
X136207000Y-114200000D02*
X136207000Y-113372000D01*
X136207000Y-114325000D02*
X136207000Y-114200000D01*
X136169000Y-114800000D02*
X136207000Y-114325000D01*
X141118000Y-94216200D02*
X140868000Y-93741200D01*
X141243000Y-94216200D02*
X141118000Y-94216200D01*
X141279200Y-94216200D02*
X141243000Y-94216200D01*
X141340400Y-94254800D02*
X141279200Y-94216200D01*
X141355900Y-94287500D02*
X141340400Y-94254800D01*
X141627400Y-94858400D02*
X141355900Y-94287500D01*
X141647700Y-94901300D02*
X141627400Y-94858400D01*
X141668600Y-94993800D02*
X141647700Y-94901300D01*
X141668600Y-95041200D02*
X141668600Y-94993800D01*
X141668600Y-96241200D02*
X141668600Y-95041200D01*
X141668600Y-96317300D02*
X141668600Y-96241200D01*
X141615800Y-96460200D02*
X141668600Y-96317300D01*
X141566300Y-96518000D02*
X141615800Y-96460200D01*
X140224300Y-98085000D02*
X141566300Y-96518000D01*
X140168600Y-98150000D02*
X140224300Y-98085000D01*
X140015500Y-98226900D02*
X140168600Y-98150000D01*
X139930100Y-98232800D02*
X140015500Y-98226900D01*
X138392300Y-98338100D02*
X139930100Y-98232800D01*
X137609500Y-98741900D02*
X137522800Y-99035400D01*
X138087000Y-98359000D02*
X137609500Y-98741900D01*
X138392300Y-98338100D02*
X138087000Y-98359000D01*
X136872800Y-101235400D02*
X137522800Y-99035400D01*
X136872800Y-101235400D02*
X136856000Y-101300300D01*
X136055400Y-104903700D02*
X136856000Y-101300300D01*
X136032100Y-105032100D02*
X136027700Y-105075400D01*
X136046000Y-104946200D02*
X136032100Y-105032100D01*
X136055400Y-104903700D02*
X136046000Y-104946200D01*
X135551600Y-109783400D02*
X136027700Y-105075400D01*
X135551000Y-109792800D02*
X135551000Y-109796000D01*
X135551300Y-109786500D02*
X135551000Y-109792800D01*
X135551600Y-109783400D02*
X135551300Y-109786500D01*
X135551000Y-109921000D02*
X135551000Y-109796000D01*
X135351000Y-110346000D02*
X135551000Y-109921000D01*
X163166500Y-96062200D02*
X163166500Y-95462100D01*
X163166500Y-96187200D02*
X163166500Y-96062200D01*
X163220000Y-96662200D02*
X163166500Y-96187200D01*
X135151000Y-109921000D02*
X135351000Y-110346000D01*
X135026000Y-109921000D02*
X135151000Y-109921000D01*
X135011900Y-109921000D02*
X135026000Y-109921000D01*
X134984500Y-109914700D02*
X135011900Y-109921000D01*
X134971800Y-109908600D02*
X134984500Y-109914700D01*
X133940500Y-109412500D02*
X134971800Y-109908600D01*
X133803900Y-109370400D02*
X133756000Y-109370400D01*
X133897300Y-109391700D02*
X133803900Y-109370400D01*
X133940500Y-109412500D02*
X133897300Y-109391700D01*
X133106000Y-109370400D02*
X133756000Y-109370400D01*
X132924400Y-109406100D02*
X132872400Y-109440300D01*
X133043700Y-109370400D02*
X132924400Y-109406100D01*
X133106000Y-109370400D02*
X133043700Y-109370400D01*
X129514000Y-111645700D02*
X132872400Y-109440300D01*
X129051400Y-112243900D02*
X129051400Y-112503000D01*
X129297400Y-111787900D02*
X129051400Y-112243900D01*
X129514000Y-111645700D02*
X129297400Y-111787900D01*
X129051400Y-115103000D02*
X129051400Y-112503000D01*
X129146400Y-115390300D02*
X129230800Y-115450100D01*
X129051400Y-115206500D02*
X129146400Y-115390300D01*
X129051400Y-115103000D02*
X129051400Y-115206500D01*
X133910100Y-118769300D02*
X129230800Y-115450100D01*
X133916400Y-118773900D02*
X133910100Y-118769300D01*
X134285200Y-119062000D02*
X133916400Y-118773900D01*
X134292500Y-119068200D02*
X134285200Y-119062000D01*
X134307400Y-119081800D02*
X134292500Y-119068200D01*
X134307500Y-119081900D02*
X134307400Y-119081800D01*
X134363700Y-119133300D02*
X134307500Y-119081900D01*
X134365800Y-119135200D02*
X134363700Y-119133300D01*
X134369800Y-119139200D02*
X134365800Y-119135200D01*
X134371700Y-119141300D02*
X134369800Y-119139200D01*
X134436600Y-119212400D02*
X134371700Y-119141300D01*
X134442800Y-119219700D02*
X134436600Y-119212400D01*
X139528600Y-125731000D02*
X134442800Y-119219700D01*
X139745600Y-125887800D02*
X139836500Y-125893700D01*
X139584600Y-125802800D02*
X139745600Y-125887800D01*
X139528600Y-125731000D02*
X139584600Y-125802800D01*
X144823000Y-126216200D02*
X139836500Y-125893700D01*
X144823000Y-126216200D02*
X144886000Y-126218200D01*
X146412000Y-126218200D02*
X144886000Y-126218200D01*
X146412000Y-126218200D02*
X146442300Y-126217700D01*
X156871200Y-125894400D02*
X146442300Y-126217700D01*
X157137700Y-125803800D02*
X157196000Y-125727700D01*
X156967100Y-125891400D02*
X157137700Y-125803800D01*
X156871200Y-125894400D02*
X156967100Y-125891400D01*
X167633300Y-112090800D02*
X157196000Y-125727700D01*
X168040400Y-111214800D02*
X168040400Y-110889000D01*
X167831300Y-111832000D02*
X168040400Y-111214800D01*
X167633300Y-112090800D02*
X167831300Y-111832000D01*
X168040400Y-109989000D02*
X168040400Y-110889000D01*
X167807800Y-108996800D02*
X167588800Y-108731200D01*
X168040400Y-109644800D02*
X167807800Y-108996800D01*
X168040400Y-109989000D02*
X168040400Y-109644800D01*
X167130800Y-108175600D02*
X167588800Y-108731200D01*
X167116600Y-108157800D02*
X167130800Y-108175600D01*
X166370300Y-107192300D02*
X167116600Y-108157800D01*
X166343500Y-107157600D02*
X166370300Y-107192300D01*
X166305100Y-107078700D02*
X166343500Y-107157600D01*
X166294400Y-107036200D02*
X166305100Y-107078700D01*
X164007600Y-97983000D02*
X166294400Y-107036200D01*
X163959900Y-97864000D02*
X163933900Y-97829800D01*
X163997100Y-97941400D02*
X163959900Y-97864000D01*
X164007600Y-97983000D02*
X163997100Y-97941400D01*
X163873700Y-97750500D02*
X163933900Y-97829800D01*
X163677100Y-97612200D02*
X163595000Y-97612200D01*
X163824100Y-97685200D02*
X163677100Y-97612200D01*
X163873700Y-97750500D02*
X163824100Y-97685200D01*
X163470000Y-97612200D02*
X163595000Y-97612200D01*
X163439500Y-97612200D02*
X163470000Y-97612200D01*
X163379500Y-97601700D02*
X163439500Y-97612200D01*
X163350800Y-97591300D02*
X163379500Y-97601700D01*
X163191500Y-97533600D02*
X163350800Y-97591300D01*
X139772000Y-93566200D02*
X139197000Y-93741200D01*
X139772000Y-93441200D02*
X139772000Y-93566200D01*
X140189200Y-89049900D02*
X139772000Y-93441200D01*
X140211100Y-88818600D02*
X140189200Y-89049900D01*
X140458800Y-88425300D02*
X140211100Y-88818600D01*
X140657900Y-88305600D02*
X140458800Y-88425300D01*
X143146600Y-86809100D02*
X140657900Y-88305600D01*
X143161200Y-86800300D02*
X143146600Y-86809100D01*
X143194000Y-86791200D02*
X143161200Y-86800300D01*
X143211000Y-86791200D02*
X143194000Y-86791200D01*
X143336000Y-86791200D02*
X143211000Y-86791200D01*
X144961000Y-85166200D02*
X143336000Y-86791200D01*
X163191500Y-97262200D02*
X163191500Y-97533600D01*
X163191500Y-97137200D02*
X163191500Y-97262200D01*
X163220000Y-96662200D02*
X163191500Y-97137200D01*
X139772000Y-93741200D02*
X139197000Y-93741200D01*
X139897000Y-93741200D02*
X139772000Y-93741200D01*
X140493000Y-93741200D02*
X139897000Y-93741200D01*
X140618000Y-93741200D02*
X140493000Y-93741200D01*
X140868000Y-93741200D02*
X140618000Y-93741200D01*
X163179600Y-97542500D02*
X163191500Y-97533600D01*
X163134200Y-97576400D02*
X163179600Y-97542500D01*
X163026700Y-97612200D02*
X163134200Y-97576400D01*
X162970000Y-97612200D02*
X163026700Y-97612200D01*
X162845000Y-97612200D02*
X162970000Y-97612200D01*
X162615900Y-97685100D02*
X162566300Y-97750500D01*
X162762900Y-97612200D02*
X162615900Y-97685100D01*
X162845000Y-97612200D02*
X162762900Y-97612200D01*
X162506100Y-97829800D02*
X162566300Y-97750500D01*
X162419400Y-98017500D02*
X162419400Y-98087200D01*
X162463900Y-97885300D02*
X162419400Y-98017500D01*
X162506100Y-97829800D02*
X162463900Y-97885300D01*
X162419400Y-99162200D02*
X162419400Y-98087200D01*
X162419400Y-99162200D02*
X162420400Y-99191600D01*
X162584600Y-101559600D02*
X162420400Y-99191600D01*
X162585600Y-101589000D02*
X162584600Y-101559600D01*
X162585600Y-103795000D02*
X162585600Y-101589000D01*
X162585600Y-103917300D02*
X162585600Y-103795000D01*
X162455600Y-104124700D02*
X162585600Y-103917300D01*
X162345500Y-104178000D02*
X162455600Y-104124700D01*
X162214500Y-104241500D02*
X162345500Y-104178000D01*
X162201800Y-104247700D02*
X162214500Y-104241500D01*
X162174200Y-104254000D02*
X162201800Y-104247700D01*
X162160000Y-104254000D02*
X162174200Y-104254000D01*
X162035000Y-104254000D02*
X162160000Y-104254000D01*
X161360000Y-104279000D02*
X162035000Y-104254000D01*
X135551000Y-110771000D02*
X135351000Y-110346000D01*
X135551000Y-110896000D02*
X135551000Y-110771000D01*
X135553100Y-110920000D02*
X135555100Y-110927800D01*
X135551000Y-110904000D02*
X135553100Y-110920000D01*
X135551000Y-110896000D02*
X135551000Y-110904000D01*
X135915900Y-112300200D02*
X135555100Y-110927800D01*
X135917900Y-112308000D02*
X135915900Y-112300200D01*
X135920000Y-112324000D02*
X135917900Y-112308000D01*
X135920000Y-112332000D02*
X135920000Y-112324000D01*
X135920000Y-112457000D02*
X135920000Y-112332000D01*
X136245000Y-112852000D02*
X135920000Y-112457000D01*
X155673900Y-99129800D02*
X154430500Y-100288300D01*
X155903400Y-98755000D02*
X155904800Y-98605800D01*
X155783100Y-99028100D02*
X155903400Y-98755000D01*
X155673900Y-99129800D02*
X155783100Y-99028100D01*
X155986500Y-90004300D02*
X155904800Y-98605800D01*
X155470400Y-88879700D02*
X155053500Y-88763400D01*
X155990600Y-89571500D02*
X155470400Y-88879700D01*
X155986500Y-90004300D02*
X155990600Y-89571500D01*
X149896700Y-87326200D02*
X155053500Y-88763400D01*
X149822000Y-87305300D02*
X149896700Y-87326200D01*
X149697000Y-87213700D02*
X149822000Y-87305300D01*
X149654600Y-87148800D02*
X149697000Y-87213700D01*
X147067400Y-83183600D02*
X149654600Y-87148800D01*
X146818800Y-82990600D02*
X146711000Y-82990600D01*
X147008500Y-83093300D02*
X146818800Y-82990600D01*
X147067400Y-83183600D02*
X147008500Y-83093300D01*
X143211000Y-82990600D02*
X146711000Y-82990600D01*
X142900000Y-83104200D02*
X142842900Y-83202600D01*
X143097200Y-82990600D02*
X142900000Y-83104200D01*
X143211000Y-82990600D02*
X143097200Y-82990600D01*
X139840500Y-88375800D02*
X142842900Y-83202600D01*
X139743200Y-88571100D02*
X139719200Y-88639800D01*
X139804000Y-88438800D02*
X139743200Y-88571100D01*
X139840500Y-88375800D02*
X139804000Y-88438800D01*
X138095100Y-93301200D02*
X139719200Y-88639800D01*
X138093600Y-93305500D02*
X138095100Y-93301200D01*
X137800400Y-94176900D02*
X138093600Y-93305500D01*
X137776100Y-94249100D02*
X137800400Y-94176900D01*
X137680400Y-94367700D02*
X137776100Y-94249100D01*
X137615000Y-94406700D02*
X137680400Y-94367700D01*
X137461000Y-94498600D02*
X137615000Y-94406700D01*
X137446500Y-94507200D02*
X137461000Y-94498600D01*
X137413900Y-94516200D02*
X137446500Y-94507200D01*
X137397000Y-94516200D02*
X137413900Y-94516200D01*
X137272000Y-94516200D02*
X137397000Y-94516200D01*
X136697000Y-94691200D02*
X137272000Y-94516200D01*
X146507900Y-123891900D02*
X147071100Y-124566100D01*
X146439800Y-123847000D02*
X146412000Y-123847000D01*
X146490100Y-123870600D02*
X146439800Y-123847000D01*
X146507900Y-123891900D02*
X146490100Y-123870600D01*
X146287000Y-123847000D02*
X146412000Y-123847000D01*
X145649000Y-123647000D02*
X146287000Y-123847000D01*
X149486000Y-101503000D02*
X150161000Y-101478000D01*
X149361000Y-101503000D02*
X149486000Y-101503000D01*
X148951200Y-101727500D02*
X148937500Y-101892700D01*
X149195200Y-101503000D02*
X148951200Y-101727500D01*
X149361000Y-101503000D02*
X149195200Y-101503000D01*
X148782900Y-103746600D02*
X148937500Y-101892700D01*
X148777900Y-103806000D02*
X148782900Y-103746600D01*
X148758100Y-103923500D02*
X148777900Y-103806000D01*
X148743400Y-103981200D02*
X148758100Y-103923500D01*
X147978600Y-106974800D02*
X148743400Y-103981200D01*
X147959800Y-107057500D02*
X147955000Y-107085300D01*
X147971600Y-107002200D02*
X147959800Y-107057500D01*
X147978600Y-106974800D02*
X147971600Y-107002200D01*
X147779800Y-108100300D02*
X147955000Y-107085300D01*
X147753400Y-108253200D02*
X147779800Y-108100300D01*
X147516100Y-108453000D02*
X147753400Y-108253200D01*
X147361000Y-108453000D02*
X147516100Y-108453000D01*
X147236000Y-108453000D02*
X147361000Y-108453000D01*
X146561000Y-108478000D02*
X147236000Y-108453000D01*
X140618000Y-95166200D02*
X140868000Y-95641200D01*
X140493000Y-95166200D02*
X140618000Y-95166200D01*
X140477200Y-95166200D02*
X140493000Y-95166200D01*
X140446500Y-95158300D02*
X140477200Y-95166200D01*
X140432600Y-95150600D02*
X140446500Y-95158300D01*
X140102600Y-94968600D02*
X140432600Y-95150600D01*
X139950900Y-94915600D02*
X139897000Y-94915600D01*
X140055400Y-94942500D02*
X139950900Y-94915600D01*
X140102600Y-94968600D02*
X140055400Y-94942500D01*
X138497000Y-94915600D02*
X139897000Y-94915600D01*
X138351200Y-94938300D02*
X138306900Y-94960400D01*
X138447500Y-94915600D02*
X138351200Y-94938300D01*
X138497000Y-94915600D02*
X138447500Y-94915600D01*
X137869200Y-95179000D02*
X138306900Y-94960400D01*
X154650400Y-101125300D02*
X154430500Y-100288300D01*
X154676200Y-101223400D02*
X154650400Y-101125300D01*
X154704400Y-101424400D02*
X154676200Y-101223400D01*
X154706700Y-101525800D02*
X154704400Y-101424400D01*
X154710500Y-101698400D02*
X154706700Y-101525800D01*
X154714100Y-101747500D02*
X154717000Y-101763600D01*
X154710900Y-101714800D02*
X154714100Y-101747500D01*
X154710500Y-101698400D02*
X154710900Y-101714800D01*
X154793100Y-102190700D02*
X154717000Y-101763600D01*
X154807900Y-102273800D02*
X154793100Y-102190700D01*
X154820500Y-102442100D02*
X154807900Y-102273800D01*
X154818200Y-102526500D02*
X154820500Y-102442100D01*
X154803100Y-103088100D02*
X154818200Y-102526500D01*
X154798800Y-103185300D02*
X154803100Y-103088100D01*
X154780800Y-103471100D02*
X154798800Y-103185300D01*
X154780800Y-103471100D02*
X154780100Y-103495000D01*
X154780100Y-103496100D02*
X154780100Y-103495000D01*
X154780600Y-103648700D02*
X154780100Y-103496100D01*
X154780600Y-103663300D02*
X154780600Y-103648700D01*
X154780300Y-103794100D02*
X154780600Y-103663300D01*
X154846600Y-104024900D02*
X154907500Y-104079300D01*
X154780100Y-103875700D02*
X154846600Y-104024900D01*
X154780300Y-103794100D02*
X154780100Y-103875700D01*
X155059200Y-104214900D02*
X154907500Y-104079300D01*
X155082500Y-104231500D02*
X155091300Y-104235200D01*
X155066300Y-104221300D02*
X155082500Y-104231500D01*
X155059200Y-104214900D02*
X155066300Y-104221300D01*
X155136000Y-104254000D02*
X155091300Y-104235200D01*
X155261000Y-104254000D02*
X155136000Y-104254000D01*
X155936000Y-104279000D02*
X155261000Y-104254000D01*
X139989000Y-122394000D02*
X140614000Y-123869000D01*
X139989000Y-122269000D02*
X139989000Y-122394000D01*
X139971200Y-122200400D02*
X139954700Y-122183000D01*
X139989000Y-122245000D02*
X139971200Y-122200400D01*
X139989000Y-122269000D02*
X139989000Y-122245000D01*
X139555200Y-121761900D02*
X139954700Y-122183000D01*
X139546400Y-121752600D02*
X139555200Y-121761900D01*
X139529900Y-121732900D02*
X139546400Y-121752600D01*
X139522200Y-121722600D02*
X139529900Y-121732900D01*
X136518600Y-117674500D02*
X139522200Y-121722600D01*
X136506600Y-117658300D02*
X136518600Y-117674500D01*
X136494000Y-117620100D02*
X136506600Y-117658300D01*
X136494000Y-117600000D02*
X136494000Y-117620100D01*
X136494000Y-117475000D02*
X136494000Y-117600000D01*
X136169000Y-117000000D02*
X136494000Y-117475000D01*
X163013600Y-104268700D02*
X162760400Y-104724900D01*
X163136200Y-103919300D02*
X163136200Y-103795000D01*
X163073900Y-104160000D02*
X163136200Y-103919300D01*
X163013600Y-104268700D02*
X163073900Y-104160000D01*
X163136200Y-99162200D02*
X163136200Y-103795000D01*
X163136200Y-99037200D02*
X163136200Y-99162200D01*
X163220000Y-98562200D02*
X163136200Y-99037200D01*
X133338000Y-103614000D02*
X132613000Y-104089000D01*
X133338000Y-103489000D02*
X133338000Y-103614000D01*
X133338000Y-103472300D02*
X133338000Y-103489000D01*
X133346700Y-103440200D02*
X133338000Y-103472300D01*
X133355100Y-103425800D02*
X133346700Y-103440200D01*
X136608900Y-97871400D02*
X133355100Y-103425800D01*
X136626000Y-97824900D02*
X136626000Y-97808200D01*
X136617300Y-97857000D02*
X136626000Y-97824900D01*
X136608900Y-97871400D02*
X136617300Y-97857000D01*
X136626000Y-97683200D02*
X136626000Y-97808200D01*
X137101000Y-97358200D02*
X136626000Y-97683200D01*
X162546200Y-116698300D02*
X157803400Y-118521100D01*
X162556900Y-116694200D02*
X162546200Y-116698300D01*
X162579500Y-116690000D02*
X162556900Y-116694200D01*
X162591000Y-116690000D02*
X162579500Y-116690000D01*
X162716000Y-116690000D02*
X162591000Y-116690000D01*
X162966000Y-116215000D02*
X162716000Y-116690000D01*
X158493000Y-110689000D02*
X158968000Y-110439000D01*
X158368000Y-110689000D02*
X158493000Y-110689000D01*
X158334000Y-110693200D02*
X158323300Y-110697300D01*
X158356500Y-110689000D02*
X158334000Y-110693200D01*
X158368000Y-110689000D02*
X158356500Y-110689000D01*
X155359400Y-111832800D02*
X158323300Y-110697300D01*
X155267000Y-111868200D02*
X155359400Y-111832800D01*
X155076500Y-111921900D02*
X155267000Y-111868200D01*
X154979200Y-111939900D02*
X155076500Y-111921900D01*
X154666100Y-111997900D02*
X154979200Y-111939900D01*
X154527500Y-113364500D02*
X154794800Y-113363200D01*
X154131300Y-113005500D02*
X154527500Y-113364500D01*
X154081100Y-112473300D02*
X154131300Y-113005500D01*
X154403300Y-112046600D02*
X154081100Y-112473300D01*
X154666100Y-111997900D02*
X154403300Y-112046600D01*
X155528700Y-113359800D02*
X154794800Y-113363200D01*
X155533000Y-113359800D02*
X155528700Y-113359800D01*
X155658000Y-113359800D02*
X155533000Y-113359800D01*
X155749300Y-113359800D02*
X155658000Y-113359800D01*
X155928500Y-113395500D02*
X155749300Y-113359800D01*
X156012900Y-113430500D02*
X155928500Y-113395500D01*
X156847100Y-113776500D02*
X156012900Y-113430500D01*
X157110700Y-113847200D02*
X157202000Y-113847200D01*
X156931500Y-113811500D02*
X157110700Y-113847200D01*
X156847100Y-113776500D02*
X156931500Y-113811500D01*
X160602000Y-113847200D02*
X157202000Y-113847200D01*
X160811500Y-113825900D02*
X160878600Y-113804900D01*
X160672400Y-113847200D02*
X160811500Y-113825900D01*
X160602000Y-113847200D02*
X160672400Y-113847200D01*
X162463900Y-113308800D02*
X160878600Y-113804900D01*
X162494800Y-113299200D02*
X162463900Y-113308800D01*
X162558700Y-113289400D02*
X162494800Y-113299200D01*
X162591000Y-113289400D02*
X162558700Y-113289400D01*
X163341000Y-113289400D02*
X162591000Y-113289400D01*
X163420200Y-113289400D02*
X163341000Y-113289400D01*
X163568100Y-113346400D02*
X163420200Y-113289400D01*
X163626800Y-113399600D02*
X163568100Y-113346400D01*
X163843900Y-113596400D02*
X163626800Y-113399600D01*
X167065200Y-108973500D02*
X162760400Y-104724900D01*
X167269000Y-109174500D02*
X167065200Y-108973500D01*
X167489800Y-109702700D02*
X167269000Y-109174500D01*
X167489800Y-109989000D02*
X167489800Y-109702700D01*
X167489800Y-110889000D02*
X167489800Y-109989000D01*
X167489800Y-111294000D02*
X167489800Y-110889000D01*
X167064200Y-111983300D02*
X167489800Y-111294000D01*
X166702000Y-112164700D02*
X167064200Y-111983300D01*
X163843900Y-113596400D02*
X166702000Y-112164700D01*
X137667800Y-95012900D02*
X137869200Y-95179000D01*
X137628900Y-94984000D02*
X137615000Y-94975700D01*
X137655300Y-95002600D02*
X137628900Y-94984000D01*
X137667800Y-95012900D02*
X137655300Y-95002600D01*
X137461000Y-94883800D02*
X137615000Y-94975700D01*
X137413900Y-94866200D02*
X137397000Y-94866200D01*
X137446500Y-94875100D02*
X137413900Y-94866200D01*
X137461000Y-94883800D02*
X137446500Y-94875100D01*
X137272000Y-94866200D02*
X137397000Y-94866200D01*
X136697000Y-94691200D02*
X137272000Y-94866200D01*
X155533000Y-117261000D02*
X155283000Y-116786000D01*
X155658000Y-117261000D02*
X155533000Y-117261000D01*
X155671500Y-117261000D02*
X155658000Y-117261000D01*
X155697900Y-117266800D02*
X155671500Y-117261000D01*
X155710200Y-117272400D02*
X155697900Y-117266800D01*
X157035900Y-117882400D02*
X155710200Y-117272400D01*
X157063000Y-117894800D02*
X157035900Y-117882400D01*
X157113000Y-117927000D02*
X157063000Y-117894800D01*
X157135600Y-117946400D02*
X157113000Y-117927000D01*
X157803400Y-118521100D02*
X157135600Y-117946400D01*
X152816000Y-123758000D02*
X153441000Y-123869000D01*
X152691000Y-123758000D02*
X152816000Y-123758000D01*
X151836000Y-123758000D02*
X152691000Y-123758000D01*
X151711000Y-123758000D02*
X151836000Y-123758000D01*
X151073000Y-123647000D02*
X151711000Y-123758000D01*
X156733000Y-122394000D02*
X156108000Y-123869000D01*
X156733000Y-122269000D02*
X156733000Y-122394000D01*
X156733000Y-122245000D02*
X156733000Y-122269000D01*
X156750800Y-122200400D02*
X156733000Y-122245000D01*
X156767300Y-122183000D02*
X156750800Y-122200400D01*
X157166800Y-121761900D02*
X156767300Y-122183000D01*
X157266500Y-121603900D02*
X157277300Y-121542000D01*
X157210100Y-121716300D02*
X157266500Y-121603900D01*
X157166800Y-121761900D02*
X157210100Y-121716300D01*
X157803400Y-118521100D02*
X157277300Y-121542000D01*
X146817900Y-125369900D02*
X147071100Y-124566100D01*
X146776000Y-125502800D02*
X146817900Y-125369900D01*
X146551300Y-125667600D02*
X146776000Y-125502800D01*
X146412000Y-125667600D02*
X146551300Y-125667600D01*
X144886000Y-125667600D02*
X146412000Y-125667600D01*
X144842000Y-125667600D02*
X144886000Y-125667600D01*
X144755700Y-125649600D02*
X144842000Y-125667600D01*
X144715400Y-125631900D02*
X144755700Y-125649600D01*
X144081100Y-125354500D02*
X144715400Y-125631900D01*
X144043900Y-125344000D02*
X144031000Y-125344000D01*
X144069300Y-125349300D02*
X144043900Y-125344000D01*
X144081100Y-125354500D02*
X144069300Y-125349300D01*
X143906000Y-125344000D02*
X144031000Y-125344000D01*
X143281000Y-123869000D02*
X143906000Y-125344000D01*
X150282800Y-123850000D02*
X147071100Y-124566100D01*
X150289500Y-123848500D02*
X150282800Y-123850000D01*
X150303100Y-123847000D02*
X150289500Y-123848500D01*
X150310000Y-123847000D02*
X150303100Y-123847000D01*
X150435000Y-123847000D02*
X150310000Y-123847000D01*
X151073000Y-123647000D02*
X150435000Y-123847000D01*
X137576000Y-97033200D02*
X137101000Y-97358200D01*
X137576000Y-96908200D02*
X137576000Y-97033200D01*
X137576000Y-96899800D02*
X137576000Y-96908200D01*
X137578300Y-96883000D02*
X137576000Y-96899800D01*
X137580500Y-96874900D02*
X137578300Y-96883000D01*
X137807200Y-96054600D02*
X137580500Y-96874900D01*
X137820500Y-95989000D02*
X137821800Y-95966700D01*
X137813200Y-96033100D02*
X137820500Y-95989000D01*
X137807200Y-96054600D02*
X137813200Y-96033100D01*
X137869200Y-95179000D02*
X137821800Y-95966700D01*
X136122000Y-94602800D02*
X136697000Y-94691200D01*
X135997000Y-94602800D02*
X136122000Y-94602800D01*
X134360000Y-94602800D02*
X135997000Y-94602800D01*
X134262000Y-94602800D02*
X134360000Y-94602800D01*
X134085700Y-94517100D02*
X134262000Y-94602800D01*
X134025200Y-94440000D02*
X134085700Y-94517100D01*
X133758300Y-94100000D02*
X134025200Y-94440000D01*
X133688800Y-94052200D02*
X133660000Y-94052200D01*
X133740500Y-94077400D02*
X133688800Y-94052200D01*
X133758300Y-94100000D02*
X133740500Y-94077400D01*
X133535000Y-94052200D02*
X133660000Y-94052200D01*
X133060000Y-93802200D02*
X133535000Y-94052200D01*
X135844000Y-116525000D02*
X136169000Y-117000000D01*
X135719000Y-116525000D02*
X135844000Y-116525000D01*
X135708600Y-116525000D02*
X135719000Y-116525000D01*
X135688200Y-116521600D02*
X135708600Y-116525000D01*
X135678400Y-116518200D02*
X135688200Y-116521600D01*
X131217600Y-114984800D02*
X135678400Y-116518200D01*
X131187400Y-114978000D02*
X131177000Y-114978000D01*
X131207800Y-114981400D02*
X131187400Y-114978000D01*
X131217600Y-114984800D02*
X131207800Y-114981400D01*
X131052000Y-114978000D02*
X131177000Y-114978000D01*
X130327000Y-114503000D02*
X131052000Y-114978000D01*
X145649000Y-123447000D02*
X145649000Y-123647000D01*
X145649000Y-123322000D02*
X145649000Y-123447000D01*
X145649000Y-122702000D02*
X145649000Y-123322000D01*
X145649000Y-122577000D02*
X145649000Y-122702000D01*
X145649000Y-122377000D02*
X145649000Y-122577000D01*
X155483000Y-123869000D02*
X156108000Y-123869000D01*
X155358000Y-123869000D02*
X155483000Y-123869000D01*
X154191000Y-123869000D02*
X155358000Y-123869000D01*
X154066000Y-123869000D02*
X154191000Y-123869000D01*
X153441000Y-123869000D02*
X154066000Y-123869000D01*
X153628400Y-99963500D02*
X154430500Y-100288300D01*
X152190400Y-99950300D02*
X151822100Y-100283300D01*
X153168200Y-99777200D02*
X152190400Y-99950300D01*
X153628400Y-99963500D02*
X153168200Y-99777200D01*
X151180300Y-100863600D02*
X151822100Y-100283300D01*
X150919700Y-101152000D02*
X150853700Y-101263900D01*
X151084000Y-100950700D02*
X150919700Y-101152000D01*
X151180300Y-100863600D02*
X151084000Y-100950700D01*
X150853400Y-101264500D02*
X150853700Y-101263900D01*
X150836100Y-101311200D02*
X150836000Y-101328000D01*
X150844900Y-101278900D02*
X150836100Y-101311200D01*
X150853400Y-101264500D02*
X150844900Y-101278900D01*
X150836000Y-101453000D02*
X150836000Y-101328000D01*
X150161000Y-101478000D02*
X150836000Y-101453000D01*
X162194100Y-104885300D02*
X162760400Y-104724900D01*
X162185800Y-104887600D02*
X162194100Y-104885300D01*
X162168600Y-104890000D02*
X162185800Y-104887600D01*
X162160000Y-104890000D02*
X162168600Y-104890000D01*
X162035000Y-104890000D02*
X162160000Y-104890000D01*
X161360000Y-104915000D02*
X162035000Y-104890000D01*
X155033000Y-116777500D02*
X155283000Y-116786000D01*
X154908000Y-116777500D02*
X155033000Y-116777500D01*
X154240000Y-116777500D02*
X154908000Y-116777500D01*
X154115000Y-116777500D02*
X154240000Y-116777500D01*
X153865000Y-116769000D02*
X154115000Y-116777500D01*
X142656000Y-123869000D02*
X143281000Y-123869000D01*
X142531000Y-123869000D02*
X142656000Y-123869000D01*
X141364000Y-123869000D02*
X142531000Y-123869000D01*
X141239000Y-123869000D02*
X141364000Y-123869000D01*
X140614000Y-123869000D02*
X141239000Y-123869000D01*
X163216000Y-115740000D02*
X162966000Y-116215000D01*
X163341000Y-115740000D02*
X163216000Y-115740000D01*
X163438300Y-115701400D02*
X163453900Y-115668700D01*
X163377200Y-115740000D02*
X163438300Y-115701400D01*
X163341000Y-115740000D02*
X163377200Y-115740000D01*
X163725400Y-115097800D02*
X163453900Y-115668700D01*
X163763500Y-114980800D02*
X163765900Y-114939700D01*
X163743100Y-115060600D02*
X163763500Y-114980800D01*
X163725400Y-115097800D02*
X163743100Y-115060600D01*
X163843900Y-113596400D02*
X163765900Y-114939700D01*
X139729000Y-98896800D02*
X140156900Y-98999800D01*
X139597200Y-98876300D02*
X139552600Y-98876600D01*
X139685700Y-98886400D02*
X139597200Y-98876300D01*
X139729000Y-98896800D02*
X139685700Y-98886400D01*
X138455200Y-98886400D02*
X139552600Y-98876600D01*
X138090600Y-99056800D02*
X138050800Y-99191400D01*
X138314800Y-98887700D02*
X138090600Y-99056800D01*
X138455200Y-98886400D02*
X138314800Y-98887700D01*
X137400800Y-101391400D02*
X138050800Y-99191400D01*
X137400800Y-101391400D02*
X137393500Y-101419700D01*
X136592900Y-105023100D02*
X137393500Y-101419700D01*
X136570800Y-105173300D02*
X136570800Y-105224000D01*
X136581900Y-105072600D02*
X136570800Y-105173300D01*
X136592900Y-105023100D02*
X136581900Y-105072600D01*
X136570800Y-106424000D02*
X136570800Y-105224000D01*
X136580400Y-106565000D02*
X136589900Y-106611200D01*
X136570800Y-106471200D02*
X136580400Y-106565000D01*
X136570800Y-106424000D02*
X136570800Y-106471200D01*
X136901900Y-108123200D02*
X136589900Y-106611200D01*
X136965200Y-108324300D02*
X136999400Y-108385900D01*
X136916100Y-108192200D02*
X136965200Y-108324300D01*
X136901900Y-108123200D02*
X136916100Y-108192200D01*
X138087000Y-110342800D02*
X136999400Y-108385900D01*
X138164100Y-110445900D02*
X138198100Y-110472300D01*
X138107900Y-110380500D02*
X138164100Y-110445900D01*
X138087000Y-110342800D02*
X138107900Y-110380500D01*
X141547900Y-113071300D02*
X138198100Y-110472300D01*
X142213600Y-113512700D02*
X142455100Y-113625600D01*
X141758500Y-113234700D02*
X142213600Y-113512700D01*
X141547900Y-113071300D02*
X141758500Y-113234700D01*
X152638100Y-118382300D02*
X142455100Y-113625600D01*
X152677300Y-118394000D02*
X152691000Y-118394000D01*
X152650500Y-118388100D02*
X152677300Y-118394000D01*
X152638100Y-118382300D02*
X152650500Y-118388100D01*
X152816000Y-118394000D02*
X152691000Y-118394000D01*
X153441000Y-119869000D02*
X152816000Y-118394000D01*
X140636600Y-98450000D02*
X140156900Y-98999800D01*
X140642500Y-98443200D02*
X140636600Y-98450000D01*
X141984500Y-96876200D02*
X140642500Y-98443200D01*
X142219200Y-96415900D02*
X142219200Y-96241200D01*
X142098100Y-96743500D02*
X142219200Y-96415900D01*
X141984500Y-96876200D02*
X142098100Y-96743500D01*
X142219200Y-95041200D02*
X142219200Y-96241200D01*
X142198100Y-94827100D02*
X142177300Y-94758300D01*
X142219200Y-94969300D02*
X142198100Y-94827100D01*
X142219200Y-95041200D02*
X142219200Y-94969300D01*
X141650300Y-93017900D02*
X142177300Y-94758300D01*
X141637700Y-92981500D02*
X141632500Y-92969700D01*
X141646600Y-93005600D02*
X141637700Y-92981500D01*
X141650300Y-93017900D02*
X141646600Y-93005600D01*
X140771500Y-91013700D02*
X141632500Y-92969700D01*
X140753600Y-90973200D02*
X140771500Y-91013700D01*
X140735400Y-90886500D02*
X140753600Y-90973200D01*
X140735400Y-90842200D02*
X140735400Y-90886500D01*
X140735400Y-89142200D02*
X140735400Y-90842200D01*
X140735400Y-88987000D02*
X140735400Y-89142200D01*
X140935300Y-88749500D02*
X140735400Y-88987000D01*
X141088200Y-88722900D02*
X140935300Y-88749500D01*
X146701800Y-87748900D02*
X141088200Y-88722900D01*
X146910000Y-87712800D02*
X146701800Y-87748900D01*
X147332500Y-87718500D02*
X146910000Y-87712800D01*
X147539700Y-87760100D02*
X147332500Y-87718500D01*
X152422400Y-88741600D02*
X147539700Y-87760100D01*
X152525100Y-88762200D02*
X152422400Y-88741600D01*
X152721000Y-88836500D02*
X152525100Y-88762200D01*
X152811600Y-88889100D02*
X152721000Y-88836500D01*
X154711000Y-89992200D02*
X152811600Y-88889100D01*
X155483000Y-119869000D02*
X156108000Y-119869000D01*
X155358000Y-119869000D02*
X155483000Y-119869000D01*
X154191000Y-119869000D02*
X155358000Y-119869000D01*
X154066000Y-119869000D02*
X154191000Y-119869000D01*
X153441000Y-119869000D02*
X154066000Y-119869000D01*
X152816000Y-120907000D02*
X153441000Y-119869000D01*
X152691000Y-120907000D02*
X152816000Y-120907000D01*
X151836000Y-120907000D02*
X152691000Y-120907000D01*
X151711000Y-120907000D02*
X151836000Y-120907000D01*
X151073000Y-121107000D02*
X151711000Y-120907000D01*
X151073000Y-121307000D02*
X151073000Y-121107000D01*
X151073000Y-121432000D02*
X151073000Y-121307000D01*
X151073000Y-122052000D02*
X151073000Y-121432000D01*
X151073000Y-122177000D02*
X151073000Y-122052000D01*
X151073000Y-122377000D02*
X151073000Y-122177000D01*
X146776200Y-98704300D02*
X154711000Y-89992200D01*
X146534700Y-99155000D02*
X146534800Y-99328000D01*
X146659700Y-98832200D02*
X146534700Y-99155000D01*
X146776200Y-98704300D02*
X146659700Y-98832200D01*
X146534800Y-101328000D02*
X146534800Y-99328000D01*
X146534800Y-101453000D02*
X146534800Y-101328000D01*
X146561000Y-101478000D02*
X146534800Y-101453000D01*
X153064400Y-118394000D02*
X153441000Y-119869000D01*
X153064400Y-118269000D02*
X153064400Y-118394000D01*
X153064400Y-116169000D02*
X153064400Y-118269000D01*
X153064400Y-116071000D02*
X153064400Y-116169000D01*
X153150100Y-115894700D02*
X153064400Y-116071000D01*
X153227200Y-115834200D02*
X153150100Y-115894700D01*
X153567200Y-115567300D02*
X153227200Y-115834200D01*
X153615000Y-115497800D02*
X153615000Y-115469000D01*
X153589800Y-115549500D02*
X153615000Y-115497800D01*
X153567200Y-115567300D02*
X153589800Y-115549500D01*
X153615000Y-115344000D02*
X153615000Y-115469000D01*
X153865000Y-114869000D02*
X153615000Y-115344000D01*
X154115000Y-114877500D02*
X153865000Y-114869000D01*
X154240000Y-114877500D02*
X154115000Y-114877500D01*
X154908000Y-114877500D02*
X154240000Y-114877500D01*
X155033000Y-114877500D02*
X154908000Y-114877500D01*
X155283000Y-114886000D02*
X155033000Y-114877500D01*
X140786300Y-101526100D02*
X140156900Y-98999800D01*
X140842800Y-101724300D02*
X140866100Y-101789000D01*
X140802900Y-101592800D02*
X140842800Y-101724300D01*
X140786300Y-101526100D02*
X140802900Y-101592800D01*
X141754700Y-104262300D02*
X140866100Y-101789000D01*
X141782400Y-104339500D02*
X141754700Y-104262300D01*
X141797700Y-104502800D02*
X141782400Y-104339500D01*
X141784800Y-104583800D02*
X141797700Y-104502800D01*
X141456400Y-106648100D02*
X141784800Y-104583800D01*
X141450500Y-106685500D02*
X141456400Y-106648100D01*
X141434600Y-106759600D02*
X141450500Y-106685500D01*
X141424700Y-106796200D02*
X141434600Y-106759600D01*
X141420500Y-106811700D02*
X141424700Y-106796200D01*
X141372800Y-107189700D02*
X141391900Y-107315900D01*
X141387200Y-106934900D02*
X141372800Y-107189700D01*
X141420500Y-106811700D02*
X141387200Y-106934900D01*
X141507900Y-108077900D02*
X141391900Y-107315900D01*
X141591500Y-108333500D02*
X141645800Y-108405600D01*
X141521500Y-108167100D02*
X141591500Y-108333500D01*
X141507900Y-108077900D02*
X141521500Y-108167100D01*
X143099400Y-110333900D02*
X141645800Y-108405600D01*
X143857600Y-110939000D02*
X144181200Y-110995500D01*
X143297100Y-110596200D02*
X143857600Y-110939000D01*
X143099400Y-110333900D02*
X143297100Y-110596200D01*
X147301700Y-111540400D02*
X144181200Y-110995500D01*
X147421000Y-111554200D02*
X147461000Y-111554200D01*
X147341200Y-111547300D02*
X147421000Y-111554200D01*
X147301700Y-111540400D02*
X147341200Y-111547300D01*
X149261000Y-111554200D02*
X147461000Y-111554200D01*
X149959900Y-111288100D02*
X150080100Y-111060300D01*
X149518600Y-111554200D02*
X149959900Y-111288100D01*
X149261000Y-111554200D02*
X149518600Y-111554200D01*
X150508900Y-110247800D02*
X150080100Y-111060300D01*
X150536700Y-110195300D02*
X150508900Y-110247800D01*
X150602500Y-110096400D02*
X150536700Y-110195300D01*
X150640200Y-110050500D02*
X150602500Y-110096400D01*
X150644800Y-110044800D02*
X150640200Y-110050500D01*
X150768300Y-109818300D02*
X150779000Y-109732200D01*
X150699900Y-109977800D02*
X150768300Y-109818300D01*
X150644800Y-110044800D02*
X150699900Y-109977800D01*
X150807400Y-109502300D02*
X150779000Y-109732200D01*
X150812200Y-109443700D02*
X150812200Y-109424100D01*
X150809800Y-109482800D02*
X150812200Y-109443700D01*
X150807400Y-109502300D02*
X150809800Y-109482800D01*
X150812200Y-108628000D02*
X150812200Y-109424100D01*
X150812200Y-108503000D02*
X150812200Y-108628000D01*
X150161000Y-108478000D02*
X150812200Y-108503000D01*
X134485000Y-93552200D02*
X134960000Y-93802200D01*
X134360000Y-93552200D02*
X134485000Y-93552200D01*
X134331200Y-93552200D02*
X134360000Y-93552200D01*
X134279500Y-93527000D02*
X134331200Y-93552200D01*
X134261700Y-93504400D02*
X134279500Y-93527000D01*
X133994800Y-93164400D02*
X134261700Y-93504400D01*
X133758000Y-93001600D02*
X133660000Y-93001600D01*
X133934300Y-93087300D02*
X133758000Y-93001600D01*
X133994800Y-93164400D02*
X133934300Y-93087300D01*
X132460000Y-93001600D02*
X133660000Y-93001600D01*
X132047000Y-93230500D02*
X132035400Y-93397800D01*
X132292300Y-93001600D02*
X132047000Y-93230500D01*
X132460000Y-93001600D02*
X132292300Y-93001600D01*
X131338400Y-103459600D02*
X132035400Y-93397800D01*
X131338400Y-103459600D02*
X131337400Y-103489000D01*
X131337400Y-104689000D02*
X131337400Y-103489000D01*
X131387300Y-104902200D02*
X131434200Y-104959300D01*
X131337400Y-104762900D02*
X131387300Y-104902200D01*
X131337400Y-104689000D02*
X131337400Y-104762900D01*
X132363000Y-106089000D02*
X131434200Y-104959300D01*
X132613000Y-106089000D02*
X132363000Y-106089000D01*
X132863000Y-106089000D02*
X132613000Y-106089000D01*
X134161200Y-107615000D02*
X132863000Y-106089000D01*
X134175600Y-107632000D02*
X134161200Y-107615000D01*
X134191000Y-107673700D02*
X134175600Y-107632000D01*
X134191000Y-107696000D02*
X134191000Y-107673700D01*
X134191000Y-107821000D02*
X134191000Y-107696000D01*
X134391000Y-108246000D02*
X134191000Y-107821000D01*
X135435000Y-93771700D02*
X134960000Y-93802200D01*
X135560000Y-93771700D02*
X135435000Y-93771700D01*
X135997000Y-93771700D02*
X135560000Y-93771700D01*
X136122000Y-93771700D02*
X135997000Y-93771700D01*
X136697000Y-93741200D02*
X136122000Y-93771700D01*
X159776200Y-103635500D02*
X158121400Y-106263500D01*
X159819300Y-103567100D02*
X159776200Y-103635500D01*
X159927900Y-103447300D02*
X159819300Y-103567100D01*
X159991700Y-103397700D02*
X159927900Y-103447300D01*
X160298800Y-103159000D02*
X159991700Y-103397700D01*
X160315400Y-103146000D02*
X160298800Y-103159000D01*
X160351000Y-103123600D02*
X160315400Y-103146000D01*
X160369800Y-103114200D02*
X160351000Y-103123600D01*
X160504200Y-103047200D02*
X160369800Y-103114200D01*
X160517200Y-103040700D02*
X160504200Y-103047200D01*
X160545500Y-103034000D02*
X160517200Y-103040700D01*
X160560000Y-103034000D02*
X160545500Y-103034000D01*
X160685000Y-103034000D02*
X160560000Y-103034000D01*
X161360000Y-103009000D02*
X160685000Y-103034000D01*
X161343000Y-110439000D02*
X160868000Y-110439000D01*
X161468000Y-110439000D02*
X161343000Y-110439000D01*
X162663000Y-110439000D02*
X161468000Y-110439000D01*
X162788000Y-110439000D02*
X162663000Y-110439000D01*
X163263000Y-110439000D02*
X162788000Y-110439000D01*
X160393000Y-110189000D02*
X160868000Y-110439000D01*
X160268000Y-110189000D02*
X160393000Y-110189000D01*
X160233200Y-110189000D02*
X160268000Y-110189000D01*
X160173600Y-110153100D02*
X160233200Y-110189000D01*
X160157400Y-110122300D02*
X160173600Y-110153100D01*
X158121400Y-106263500D02*
X160157400Y-110122300D01*
X156740800Y-106210100D02*
X158121400Y-106263500D01*
X156736000Y-106210000D02*
X156740800Y-106210100D01*
X156611000Y-106210000D02*
X156736000Y-106210000D01*
X155936000Y-106185000D02*
X156611000Y-106210000D01*
D31*
X142631000Y-119869000D02*
X143281000Y-119869000D01*
X142531000Y-119869000D02*
X142631000Y-119869000D01*
X141364000Y-119869000D02*
X142531000Y-119869000D01*
X141264000Y-119869000D02*
X141364000Y-119869000D01*
X140614000Y-119869000D02*
X141264000Y-119869000D01*
X139964000Y-118369000D02*
X140614000Y-119869000D01*
X139964000Y-118269000D02*
X139964000Y-118369000D01*
X139941000Y-118200600D02*
X139920700Y-118186600D01*
X139964000Y-118244300D02*
X139941000Y-118200600D01*
X139964000Y-118269000D02*
X139964000Y-118244300D01*
X136846200Y-116070000D02*
X139920700Y-118186600D01*
X136738300Y-116015400D02*
X136698600Y-116007400D01*
X136812800Y-116047000D02*
X136738300Y-116015400D01*
X136846200Y-116070000D02*
X136812800Y-116047000D01*
X135639400Y-115792600D02*
X136698600Y-116007400D01*
X135576100Y-115779800D02*
X135639400Y-115792600D01*
X135464000Y-115715600D02*
X135576100Y-115779800D01*
X135420900Y-115667600D02*
X135464000Y-115715600D01*
X133420600Y-113438800D02*
X135420900Y-115667600D01*
X133408200Y-113425000D02*
X133420600Y-113438800D01*
X133395000Y-113390500D02*
X133408200Y-113425000D01*
X133395000Y-113372000D02*
X133395000Y-113390500D01*
X133395000Y-113272000D02*
X133395000Y-113372000D01*
X133045000Y-112852000D02*
X133395000Y-113272000D01*
X133238000Y-112432000D02*
X133045000Y-112852000D01*
X133238000Y-112332000D02*
X133238000Y-112432000D01*
X133238000Y-110896000D02*
X133238000Y-112332000D01*
X133238000Y-110796000D02*
X133238000Y-110896000D01*
X133431000Y-110346000D02*
X133238000Y-110796000D01*
X132695000Y-112503000D02*
X133045000Y-112852000D01*
X132595000Y-112503000D02*
X132695000Y-112503000D01*
X130577000Y-112503000D02*
X132595000Y-112503000D01*
X130327000Y-112503000D02*
X130577000Y-112503000D01*
X144831900Y-121347900D02*
X144443800Y-121597700D01*
X144844000Y-121340100D02*
X144831900Y-121347900D01*
X144871600Y-121332000D02*
X144844000Y-121340100D01*
X144886000Y-121332000D02*
X144871600Y-121332000D01*
X144986000Y-121332000D02*
X144886000Y-121332000D01*
X145649000Y-121107000D02*
X144986000Y-121332000D01*
X144082000Y-121383000D02*
X144443800Y-121597700D01*
X144044500Y-121369000D02*
X144031000Y-121369000D01*
X144070400Y-121376100D02*
X144044500Y-121369000D01*
X144082000Y-121383000D02*
X144070400Y-121376100D01*
X143931000Y-121369000D02*
X144031000Y-121369000D01*
X143281000Y-119869000D02*
X143931000Y-121369000D01*
X144485500Y-123979000D02*
X144443800Y-121597700D01*
X144573800Y-124240000D02*
X144649700Y-124295500D01*
X144487100Y-124073000D02*
X144573800Y-124240000D01*
X144485500Y-123979000D02*
X144487100Y-124073000D01*
X144945000Y-124511300D02*
X144649700Y-124295500D01*
X144964300Y-124525400D02*
X144945000Y-124511300D01*
X144986000Y-124568100D02*
X144964300Y-124525400D01*
X144986000Y-124592000D02*
X144986000Y-124568100D01*
X144986000Y-124692000D02*
X144986000Y-124592000D01*
X145649000Y-124917000D02*
X144986000Y-124692000D01*
X162591000Y-114775000D02*
X161095100Y-114775000D01*
X162691000Y-114775000D02*
X162591000Y-114775000D01*
X162966000Y-114315000D02*
X162691000Y-114775000D01*
X138859000Y-110036000D02*
X138709000Y-109761000D01*
X138859000Y-110136000D02*
X138859000Y-110036000D01*
X138878200Y-110199000D02*
X138895500Y-110213300D01*
X138859000Y-110158400D02*
X138878200Y-110199000D01*
X138859000Y-110136000D02*
X138859000Y-110158400D01*
X141776600Y-112581400D02*
X138895500Y-110213300D01*
X143097800Y-113351600D02*
X143599800Y-113457500D01*
X142172900Y-112907200D02*
X143097800Y-113351600D01*
X141776600Y-112581400D02*
X142172900Y-112907200D01*
X150049700Y-114818500D02*
X143599800Y-113457500D01*
X150757800Y-114834300D02*
X150981600Y-114753100D01*
X150282700Y-114867700D02*
X150757800Y-114834300D01*
X150049700Y-114818500D02*
X150282700Y-114867700D01*
X153353300Y-113892400D02*
X150981600Y-114753100D01*
X153386200Y-113880500D02*
X153353300Y-113892400D01*
X153455000Y-113868400D02*
X153386200Y-113880500D01*
X153490000Y-113868400D02*
X153455000Y-113868400D01*
X154240000Y-113868400D02*
X153490000Y-113868400D01*
X154264000Y-113869100D02*
X154240000Y-113868400D01*
X154718200Y-113896400D02*
X154264000Y-113869100D01*
X154839500Y-113898300D02*
X154879800Y-113895400D01*
X154758600Y-113898800D02*
X154839500Y-113898300D01*
X154718200Y-113896400D02*
X154758600Y-113898800D01*
X154897300Y-113894500D02*
X154879800Y-113895400D01*
X155022300Y-113891100D02*
X154897300Y-113894500D01*
X155028600Y-113891000D02*
X155022300Y-113891100D01*
X155528500Y-113885400D02*
X155028600Y-113891000D01*
X155533000Y-113885400D02*
X155528500Y-113885400D01*
X155658000Y-113885400D02*
X155533000Y-113885400D01*
X155697500Y-113885400D02*
X155658000Y-113885400D01*
X155775000Y-113900900D02*
X155697500Y-113885400D01*
X155811500Y-113916000D02*
X155775000Y-113900900D01*
X156645800Y-114262000D02*
X155811500Y-113916000D01*
X156949800Y-114354600D02*
X157055500Y-114365400D01*
X156743900Y-114302700D02*
X156949800Y-114354600D01*
X156645800Y-114262000D02*
X156743900Y-114302700D01*
X161095100Y-114775000D02*
X157055500Y-114365400D01*
X160602000Y-112310900D02*
X161390700Y-112310900D01*
X160502000Y-112310900D02*
X160602000Y-112310900D01*
X160002000Y-112471000D02*
X160502000Y-112310900D01*
X153411000Y-86816200D02*
X151761000Y-85166200D01*
X153511000Y-86816200D02*
X153411000Y-86816200D01*
X153527100Y-86816200D02*
X153511000Y-86816200D01*
X153557700Y-86826300D02*
X153527100Y-86816200D01*
X153570600Y-86835900D02*
X153557700Y-86826300D01*
X163882900Y-94497900D02*
X153570600Y-86835900D01*
X164015800Y-94596700D02*
X163882900Y-94497900D01*
X164218300Y-94858800D02*
X164015800Y-94596700D01*
X164280300Y-95012300D02*
X164218300Y-94858800D01*
X167051200Y-101873000D02*
X164280300Y-95012300D01*
X138003000Y-102162000D02*
X138059000Y-101887000D01*
X138003000Y-102262000D02*
X138003000Y-102162000D01*
X138003000Y-103024000D02*
X138003000Y-102262000D01*
X138003000Y-103124000D02*
X138003000Y-103024000D01*
X137947000Y-103624000D02*
X138003000Y-103124000D01*
X137597000Y-104124000D02*
X137947000Y-103624000D01*
X137597000Y-104224000D02*
X137597000Y-104124000D01*
X137597000Y-104237200D02*
X137597000Y-104224000D01*
X137590200Y-104262700D02*
X137597000Y-104237200D01*
X137583600Y-104274100D02*
X137590200Y-104262700D01*
X137150200Y-105023500D02*
X137583600Y-104274100D01*
X137096400Y-105171200D02*
X137096400Y-105224000D01*
X137123800Y-105069200D02*
X137096400Y-105171200D01*
X137150200Y-105023500D02*
X137123800Y-105069200D01*
X137096400Y-106424000D02*
X137096400Y-105224000D01*
X137100500Y-106485000D02*
X137104700Y-106505000D01*
X137096400Y-106444400D02*
X137100500Y-106485000D01*
X137096400Y-106424000D02*
X137096400Y-106444400D01*
X137416700Y-108017000D02*
X137104700Y-106505000D01*
X137550000Y-108255500D02*
X137633800Y-108296300D01*
X137435600Y-108108300D02*
X137550000Y-108255500D01*
X137416700Y-108017000D02*
X137435600Y-108108300D01*
X139134200Y-109025700D02*
X137633800Y-108296300D01*
X139168800Y-109042600D02*
X139134200Y-109025700D01*
X139230300Y-109088800D02*
X139168800Y-109042600D01*
X139256100Y-109117300D02*
X139230300Y-109088800D01*
X141694000Y-111812700D02*
X139256100Y-109117300D01*
X143122100Y-112845100D02*
X143703200Y-112967700D01*
X142092400Y-112253100D02*
X143122100Y-112845100D01*
X141694000Y-111812700D02*
X142092400Y-112253100D01*
X150153100Y-114328700D02*
X143703200Y-112967700D01*
X150749400Y-114320400D02*
X150930100Y-114231800D01*
X150350000Y-114370300D02*
X150749400Y-114320400D01*
X150153100Y-114328700D02*
X150350000Y-114370300D01*
X151980800Y-113716500D02*
X150930100Y-114231800D01*
X152462200Y-113422100D02*
X152602100Y-113295700D01*
X152150000Y-113633500D02*
X152462200Y-113422100D01*
X151980800Y-113716500D02*
X152150000Y-113633500D01*
X153264100Y-112697800D02*
X152602100Y-113295700D01*
X153659200Y-112259700D02*
X153758800Y-112089500D01*
X153410400Y-112565600D02*
X153659200Y-112259700D01*
X153264100Y-112697800D02*
X153410400Y-112565600D01*
X153767000Y-112075500D02*
X153758800Y-112089500D01*
X153892200Y-111861500D02*
X153767000Y-112075500D01*
X154293000Y-111569500D02*
X153892200Y-111861500D01*
X154535100Y-111515900D02*
X154293000Y-111569500D01*
X154942000Y-111425800D02*
X154535100Y-111515900D01*
X156239800Y-110391700D02*
X156239800Y-109809300D01*
X155510600Y-111299900D02*
X156239800Y-110391700D01*
X154942000Y-111425800D02*
X155510600Y-111299900D01*
X156239800Y-107605000D02*
X156239800Y-109809300D01*
X156239800Y-107505000D02*
X156239800Y-107605000D01*
X155936000Y-107455000D02*
X156239800Y-107505000D01*
X139478500Y-107286000D02*
X139359000Y-107561000D01*
X139478500Y-107186000D02*
X139478500Y-107286000D01*
X139478500Y-106424000D02*
X139478500Y-107186000D01*
X139478500Y-106324000D02*
X139478500Y-106424000D01*
X139598000Y-105824000D02*
X139478500Y-106324000D01*
X139509000Y-107836000D02*
X139359000Y-107561000D01*
X139509000Y-107936000D02*
X139509000Y-107836000D01*
X139517700Y-107979400D02*
X139526000Y-107991800D01*
X139509000Y-107950900D02*
X139517700Y-107979400D01*
X139509000Y-107936000D02*
X139509000Y-107950900D01*
X140356300Y-109226100D02*
X139526000Y-107991800D01*
X140356300Y-109226100D02*
X140426600Y-109324700D01*
X141880200Y-111252900D02*
X140426600Y-109324700D01*
X143229800Y-112356200D02*
X143806500Y-112477900D01*
X142235000Y-111723600D02*
X143229800Y-112356200D01*
X141880200Y-111252900D02*
X142235000Y-111723600D01*
X150256500Y-113838900D02*
X143806500Y-112477900D01*
X150604200Y-113834100D02*
X150709600Y-113782400D01*
X150371300Y-113863100D02*
X150604200Y-113834100D01*
X150256500Y-113838900D02*
X150371300Y-113863100D01*
X151760300Y-113267000D02*
X150709600Y-113782400D01*
X152114000Y-113055300D02*
X152218800Y-112966100D01*
X151883900Y-113206400D02*
X152114000Y-113055300D01*
X151760300Y-113267000D02*
X151883900Y-113206400D01*
X152900600Y-112385200D02*
X152218800Y-112966100D01*
X153260200Y-112001600D02*
X153349000Y-111849800D01*
X153034400Y-112271200D02*
X153260200Y-112001600D01*
X152900600Y-112385200D02*
X153034400Y-112271200D01*
X153357200Y-111835800D02*
X153349000Y-111849800D01*
X153526600Y-111546100D02*
X153357200Y-111835800D01*
X154063800Y-111143600D02*
X153526600Y-111546100D01*
X154389400Y-111062400D02*
X154063800Y-111143600D01*
X154867100Y-110943300D02*
X154389400Y-111062400D01*
X155742500Y-109497600D02*
X155615400Y-109259400D01*
X155761900Y-110037200D02*
X155742500Y-109497600D01*
X155542600Y-110530700D02*
X155761900Y-110037200D01*
X155129100Y-110877900D02*
X155542600Y-110530700D01*
X154867100Y-110943300D02*
X155129100Y-110877900D01*
X155012700Y-108129100D02*
X155615400Y-109259400D01*
X154904900Y-107951300D02*
X154862700Y-107896300D01*
X154980100Y-108067900D02*
X154904900Y-107951300D01*
X155012700Y-108129100D02*
X154980100Y-108067900D01*
X154823400Y-107845100D02*
X154862700Y-107896300D01*
X154784900Y-107795000D02*
X154823400Y-107845100D01*
X154743100Y-107675700D02*
X154784900Y-107795000D01*
X154741900Y-107612500D02*
X154743100Y-107675700D01*
X154736200Y-107312600D02*
X154741900Y-107612500D01*
X154734000Y-107197400D02*
X154736200Y-107312600D01*
X154852900Y-107000000D02*
X154734000Y-107197400D01*
X154955700Y-106948100D02*
X154852900Y-107000000D01*
X155090900Y-106879700D02*
X154955700Y-106948100D01*
X155101400Y-106874400D02*
X155090900Y-106879700D01*
X155124300Y-106869000D02*
X155101400Y-106874400D01*
X155136000Y-106869000D02*
X155124300Y-106869000D01*
X155236000Y-106869000D02*
X155136000Y-106869000D01*
X155936000Y-106819000D02*
X155236000Y-106869000D01*
X151226300Y-112934700D02*
X150401100Y-113153400D01*
X151717300Y-112728000D02*
X151856400Y-112616300D01*
X151398800Y-112889000D02*
X151717300Y-112728000D01*
X151226300Y-112934700D02*
X151398800Y-112889000D01*
X152556900Y-112053400D02*
X151856400Y-112616300D01*
X152864600Y-111737500D02*
X152939100Y-111610100D01*
X152671900Y-111961000D02*
X152864600Y-111737500D01*
X152556900Y-112053400D02*
X152671900Y-111961000D01*
X152947300Y-111596000D02*
X152939100Y-111610100D01*
X153158700Y-111234700D02*
X152947300Y-111596000D01*
X153822800Y-110725000D02*
X153158700Y-111234700D01*
X154226500Y-110614300D02*
X153822800Y-110725000D01*
X154764500Y-110466700D02*
X154226500Y-110614300D01*
X155340300Y-109774600D02*
X155183900Y-109485200D01*
X155081800Y-110379700D02*
X155340300Y-109774600D01*
X154764500Y-110466700D02*
X155081800Y-110379700D01*
X154573600Y-108355900D02*
X155183900Y-109485200D01*
X154508600Y-108248100D02*
X154483700Y-108214300D01*
X154553600Y-108319000D02*
X154508600Y-108248100D01*
X154573600Y-108355900D02*
X154553600Y-108319000D01*
X154423100Y-108132400D02*
X154483700Y-108214300D01*
X154344200Y-108025800D02*
X154423100Y-108132400D01*
X154255700Y-107775600D02*
X154344200Y-108025800D01*
X154250000Y-107643100D02*
X154255700Y-107775600D01*
X154237100Y-107343700D02*
X154250000Y-107643100D01*
X154232800Y-107242800D02*
X154237100Y-107343700D01*
X154269000Y-107044200D02*
X154232800Y-107242800D01*
X154308700Y-106951400D02*
X154269000Y-107044200D01*
X154767600Y-105877600D02*
X154308700Y-106951400D01*
X154795600Y-105812100D02*
X154767600Y-105877600D01*
X154893300Y-105708400D02*
X154795600Y-105812100D01*
X154957000Y-105676600D02*
X154893300Y-105708400D01*
X155091300Y-105609500D02*
X154957000Y-105676600D01*
X155101700Y-105604300D02*
X155091300Y-105609500D01*
X155124400Y-105599000D02*
X155101700Y-105604300D01*
X155136000Y-105599000D02*
X155124400Y-105599000D01*
X155236000Y-105599000D02*
X155136000Y-105599000D01*
X155936000Y-105549000D02*
X155236000Y-105599000D01*
X145024900Y-108784400D02*
X144478300Y-109294400D01*
X145138200Y-108665000D02*
X145170900Y-108620900D01*
X145065100Y-108746900D02*
X145138200Y-108665000D01*
X145024900Y-108784400D02*
X145065100Y-108746900D01*
X145519900Y-108149500D02*
X145170900Y-108620900D01*
X145562300Y-108092200D02*
X145519900Y-108149500D01*
X145689700Y-108028000D02*
X145562300Y-108092200D01*
X145761000Y-108028000D02*
X145689700Y-108028000D01*
X145861000Y-108028000D02*
X145761000Y-108028000D01*
X146561000Y-107978000D02*
X145861000Y-108028000D01*
X166807000Y-103632000D02*
X167157000Y-104132000D01*
X166807000Y-103532000D02*
X166807000Y-103632000D01*
X166804000Y-103506300D02*
X166801100Y-103498200D01*
X166807000Y-103523400D02*
X166804000Y-103506300D01*
X166807000Y-103532000D02*
X166807000Y-103523400D01*
X163825800Y-95225000D02*
X166801100Y-103498200D01*
X162784600Y-94847100D02*
X162659000Y-94979200D01*
X163132600Y-94738900D02*
X162784600Y-94847100D01*
X163489300Y-94814100D02*
X163132600Y-94738900D01*
X163764100Y-95053500D02*
X163489300Y-94814100D01*
X163825800Y-95225000D02*
X163764100Y-95053500D01*
X158782800Y-99052800D02*
X162659000Y-94979200D01*
X158782800Y-99052800D02*
X158758700Y-99079300D01*
X156660100Y-101523900D02*
X158758700Y-99079300D01*
X156636000Y-101571100D02*
X156636000Y-101589000D01*
X156648400Y-101537500D02*
X156636000Y-101571100D01*
X156660100Y-101523900D02*
X156648400Y-101537500D01*
X156636000Y-101689000D02*
X156636000Y-101589000D01*
X155936000Y-101739000D02*
X156636000Y-101689000D01*
X160660000Y-101586400D02*
X160576500Y-98388600D01*
X160660000Y-101589000D02*
X160660000Y-101586400D01*
X160660000Y-101689000D02*
X160660000Y-101589000D01*
X161360000Y-101739000D02*
X160660000Y-101689000D01*
X160182900Y-102024300D02*
X159290300Y-99535700D01*
X160311800Y-102212800D02*
X160381000Y-102247400D01*
X160209000Y-102097100D02*
X160311800Y-102212800D01*
X160182900Y-102024300D02*
X160209000Y-102097100D01*
X160515300Y-102314500D02*
X160381000Y-102247400D01*
X160548400Y-102325000D02*
X160560000Y-102325000D01*
X160525700Y-102319700D02*
X160548400Y-102325000D01*
X160515300Y-102314500D02*
X160525700Y-102319700D01*
X160660000Y-102325000D02*
X160560000Y-102325000D01*
X161360000Y-102375000D02*
X160660000Y-102325000D01*
X160660000Y-103695000D02*
X161360000Y-103645000D01*
X160560000Y-103695000D02*
X160660000Y-103695000D01*
X160526600Y-103700100D02*
X160516400Y-103705000D01*
X160548700Y-103695000D02*
X160526600Y-103700100D01*
X160560000Y-103695000D02*
X160548700Y-103695000D01*
X160385400Y-103768500D02*
X160516400Y-103705000D01*
X160196300Y-103940000D02*
X160173500Y-104023800D01*
X160307200Y-103806400D02*
X160196300Y-103940000D01*
X160385400Y-103768500D02*
X160307200Y-103806400D01*
X159690400Y-105798300D02*
X160173500Y-104023800D01*
X159658800Y-105975000D02*
X159658800Y-106035000D01*
X159674700Y-105856200D02*
X159658800Y-105975000D01*
X159690400Y-105798300D02*
X159674700Y-105856200D01*
X159658800Y-107605000D02*
X159658800Y-106035000D01*
X160010600Y-108378400D02*
X160293800Y-108466000D01*
X159658800Y-107901400D02*
X160010600Y-108378400D01*
X159658800Y-107605000D02*
X159658800Y-107901400D01*
X163981300Y-109606300D02*
X160293800Y-108466000D01*
X164002800Y-109612900D02*
X163981300Y-109606300D01*
X164044000Y-109630900D02*
X164002800Y-109612900D01*
X164063500Y-109642200D02*
X164044000Y-109630900D01*
X164812900Y-110075600D02*
X164063500Y-109642200D01*
X164849800Y-110089000D02*
X164863000Y-110089000D01*
X164824300Y-110082200D02*
X164849800Y-110089000D01*
X164812900Y-110075600D02*
X164824300Y-110082200D01*
X164963000Y-110089000D02*
X164863000Y-110089000D01*
X165463000Y-110439000D02*
X164963000Y-110089000D01*
X158302000Y-112121000D02*
X157802000Y-112471000D01*
X158402000Y-112121000D02*
X158302000Y-112121000D01*
X158440700Y-112114200D02*
X158452100Y-112107600D01*
X158415200Y-112121000D02*
X158440700Y-112114200D01*
X158402000Y-112121000D02*
X158415200Y-112121000D01*
X159201500Y-111674200D02*
X158452100Y-112107600D01*
X159242900Y-111650300D02*
X159201500Y-111674200D01*
X159334500Y-111623300D02*
X159242900Y-111650300D01*
X159382200Y-111620900D02*
X159334500Y-111623300D01*
X166082800Y-111289100D02*
X159382200Y-111620900D01*
X166463600Y-111049200D02*
X166463600Y-110889000D01*
X166242800Y-111281200D02*
X166463600Y-111049200D01*
X166082800Y-111289100D02*
X166242800Y-111281200D01*
X166463600Y-109989000D02*
X166463600Y-110889000D01*
X166301200Y-109639900D02*
X166171700Y-109603400D01*
X166463600Y-109854500D02*
X166301200Y-109639900D01*
X166463600Y-109989000D02*
X166463600Y-109854500D01*
X160451300Y-107990600D02*
X166171700Y-109603400D01*
X160321800Y-107954100D02*
X160451300Y-107990600D01*
X160159400Y-107739500D02*
X160321800Y-107954100D01*
X160159400Y-107605000D02*
X160159400Y-107739500D01*
X160159400Y-106035000D02*
X160159400Y-107605000D01*
X160159400Y-105921100D02*
X160159400Y-106035000D01*
X160279100Y-105727500D02*
X160159400Y-105921100D01*
X160381000Y-105676600D02*
X160279100Y-105727500D01*
X160515300Y-105609500D02*
X160381000Y-105676600D01*
X160525700Y-105604300D02*
X160515300Y-105609500D01*
X160548400Y-105599000D02*
X160525700Y-105604300D01*
X160560000Y-105599000D02*
X160548400Y-105599000D01*
X160660000Y-105599000D02*
X160560000Y-105599000D01*
X161360000Y-105549000D02*
X160660000Y-105599000D01*
X150883900Y-110691500D02*
X150790400Y-111289700D01*
X150897800Y-110602800D02*
X150883900Y-110691500D01*
X150971300Y-110439000D02*
X150897800Y-110602800D01*
X151028300Y-110369600D02*
X150971300Y-110439000D01*
X151033000Y-110364000D02*
X151028300Y-110369600D01*
X151229800Y-110030500D02*
X151258500Y-109903900D01*
X151115500Y-110263700D02*
X151229800Y-110030500D01*
X151033000Y-110364000D02*
X151115500Y-110263700D01*
X151308900Y-109682000D02*
X151258500Y-109903900D01*
X151337200Y-109496900D02*
X151337800Y-109434400D01*
X151322700Y-109621100D02*
X151337200Y-109496900D01*
X151308900Y-109682000D02*
X151322700Y-109621100D01*
X151342500Y-108900100D02*
X151337800Y-109434400D01*
X151342900Y-108843100D02*
X151342500Y-108900100D01*
X151349900Y-108729400D02*
X151342900Y-108843100D01*
X151356300Y-108672800D02*
X151349900Y-108729400D01*
X151356400Y-108672900D02*
X151356300Y-108672800D01*
X151358700Y-108645700D02*
X151358800Y-108636600D01*
X151357400Y-108663900D02*
X151358700Y-108645700D01*
X151356400Y-108672900D02*
X151357400Y-108663900D01*
X151361500Y-108511700D02*
X151358800Y-108636600D01*
X151361600Y-108503000D02*
X151361500Y-108511700D01*
X151361600Y-108453000D02*
X151361600Y-108503000D01*
X151275600Y-108187200D02*
X151198800Y-108130600D01*
X151361600Y-108357600D02*
X151275600Y-108187200D01*
X151361600Y-108453000D02*
X151361600Y-108357600D01*
X151139100Y-108086600D02*
X151198800Y-108130600D01*
X151009100Y-108028000D02*
X150961000Y-108028000D01*
X151100400Y-108058100D02*
X151009100Y-108028000D01*
X151139100Y-108086600D02*
X151100400Y-108058100D01*
X150861000Y-108028000D02*
X150961000Y-108028000D01*
X150161000Y-107978000D02*
X150861000Y-108028000D01*
X155890300Y-112852900D02*
X154791600Y-112674800D01*
X155973700Y-112866400D02*
X155890300Y-112852900D01*
X156136200Y-112912600D02*
X155973700Y-112866400D01*
X156214200Y-112945000D02*
X156136200Y-112912600D01*
X157048500Y-113291000D02*
X156214200Y-112945000D01*
X157162500Y-113321600D02*
X157202000Y-113321600D01*
X157085000Y-113306100D02*
X157162500Y-113321600D01*
X157048500Y-113291000D02*
X157085000Y-113306100D01*
X160602000Y-113321600D02*
X157202000Y-113321600D01*
X160692600Y-113312400D02*
X160721600Y-113303300D01*
X160632400Y-113321600D02*
X160692600Y-113312400D01*
X160602000Y-113321600D02*
X160632400Y-113321600D01*
X162306900Y-112807200D02*
X160721600Y-113303300D01*
X162349600Y-112794900D02*
X162306900Y-112807200D01*
X166291700Y-111760700D02*
X162349600Y-112794900D01*
X166964200Y-111196200D02*
X166964200Y-110889000D01*
X166588900Y-111682700D02*
X166964200Y-111196200D01*
X166291700Y-111760700D02*
X166588900Y-111682700D01*
X166964200Y-109989000D02*
X166964200Y-110889000D01*
X166650100Y-109250800D02*
X166390800Y-109149500D01*
X166964200Y-109710600D02*
X166650100Y-109250800D01*
X166964200Y-109989000D02*
X166964200Y-109710600D01*
X162196400Y-107511800D02*
X166390800Y-109149500D01*
X162169300Y-107504900D02*
X162160000Y-107505000D01*
X162187700Y-107508400D02*
X162169300Y-107504900D01*
X162196400Y-107511800D02*
X162187700Y-107508400D01*
X162060000Y-107505000D02*
X162160000Y-107505000D01*
X161360000Y-107455000D02*
X162060000Y-107505000D01*
X136097000Y-95841200D02*
X136697000Y-95641200D01*
X135997000Y-95841200D02*
X136097000Y-95841200D01*
X135970900Y-95844300D02*
X135962700Y-95847300D01*
X135988200Y-95841200D02*
X135970900Y-95844300D01*
X135997000Y-95841200D02*
X135988200Y-95841200D01*
X134831400Y-96259800D02*
X135962700Y-95847300D01*
X139249000Y-95841200D02*
X139197000Y-95641200D01*
X139249000Y-95941200D02*
X139249000Y-95841200D01*
X139249000Y-96908200D02*
X139249000Y-95941200D01*
X139249000Y-97008200D02*
X139249000Y-96908200D01*
X139301000Y-97358200D02*
X139249000Y-97008200D01*
X150861000Y-101928000D02*
X150161000Y-101978000D01*
X150961000Y-101928000D02*
X150861000Y-101928000D01*
X151154300Y-101867600D02*
X151196900Y-101813300D01*
X151030100Y-101928000D02*
X151154300Y-101867600D01*
X150961000Y-101928000D02*
X151030100Y-101928000D01*
X151257700Y-101736000D02*
X151196900Y-101813300D01*
X151260900Y-101731800D02*
X151257700Y-101736000D01*
X151459700Y-101471200D02*
X151260900Y-101731800D01*
X151472200Y-101454900D02*
X151459700Y-101471200D01*
X151498300Y-101423200D02*
X151472200Y-101454900D01*
X151511900Y-101407900D02*
X151498300Y-101423200D01*
X152082600Y-100766000D02*
X151511900Y-101407900D01*
X152308100Y-100512300D02*
X152082600Y-100766000D01*
X152958000Y-100316100D02*
X152308100Y-100512300D01*
X153614500Y-100489000D02*
X152958000Y-100316100D01*
X154083400Y-100979900D02*
X153614500Y-100489000D01*
X154154700Y-101311800D02*
X154083400Y-100979900D01*
X154254900Y-101778300D02*
X154154700Y-101311800D01*
X154293800Y-101913200D02*
X154312900Y-101956000D01*
X154264700Y-101824100D02*
X154293800Y-101913200D01*
X154254900Y-101778300D02*
X154264700Y-101824100D01*
X154317000Y-101965200D02*
X154312900Y-101956000D01*
X154383800Y-102114800D02*
X154317000Y-101965200D01*
X154436800Y-102438100D02*
X154383800Y-102114800D01*
X154421400Y-102601200D02*
X154436800Y-102438100D01*
X154344200Y-103417800D02*
X154421400Y-102601200D01*
X154340600Y-103475700D02*
X154340600Y-103495000D01*
X154342400Y-103437000D02*
X154340600Y-103475700D01*
X154344200Y-103417800D02*
X154342400Y-103437000D01*
X154340600Y-103500800D02*
X154340600Y-103495000D01*
X154341600Y-103640900D02*
X154340600Y-103500800D01*
X154342400Y-103746900D02*
X154341600Y-103640900D01*
X154324000Y-103958200D02*
X154342400Y-103746900D01*
X154305000Y-104062500D02*
X154324000Y-103958200D01*
X153759200Y-107053800D02*
X154305000Y-104062500D01*
X153733800Y-107311900D02*
X153739600Y-107398300D01*
X153743700Y-107139000D02*
X153733800Y-107311900D01*
X153759200Y-107053800D02*
X153743700Y-107139000D01*
X153759600Y-107697000D02*
X153739600Y-107398300D01*
X153904200Y-108255500D02*
X154017700Y-108412800D01*
X153772500Y-107890600D02*
X153904200Y-108255500D01*
X153759600Y-107697000D02*
X153772500Y-107890600D01*
X154091200Y-108514500D02*
X154017700Y-108412800D01*
X154119700Y-108554000D02*
X154091200Y-108514500D01*
X154165200Y-108640300D02*
X154119700Y-108554000D01*
X154181600Y-108686200D02*
X154165200Y-108640300D01*
X154584200Y-109809300D02*
X154181600Y-108686200D01*
X145861000Y-101928000D02*
X146561000Y-101978000D01*
X145761000Y-101928000D02*
X145861000Y-101928000D01*
X145712900Y-101928000D02*
X145761000Y-101928000D01*
X145621600Y-101897900D02*
X145712900Y-101928000D01*
X145582900Y-101869400D02*
X145621600Y-101897900D01*
X145523200Y-101825400D02*
X145582900Y-101869400D01*
X145506000Y-101811900D02*
X145523200Y-101825400D01*
X144478300Y-100963600D02*
X145506000Y-101811900D01*
X150861000Y-102428000D02*
X150161000Y-102478000D01*
X150961000Y-102428000D02*
X150861000Y-102428000D01*
X151544400Y-102215500D02*
X151652000Y-102031200D01*
X151174400Y-102428000D02*
X151544400Y-102215500D01*
X150961000Y-102428000D02*
X151174400Y-102428000D01*
X151778800Y-101813800D02*
X151652000Y-102031200D01*
X151798900Y-101779300D02*
X151778800Y-101813800D01*
X151847500Y-101715900D02*
X151798900Y-101779300D01*
X151875500Y-101687400D02*
X151847500Y-101715900D01*
X152481200Y-101072500D02*
X151875500Y-101687400D01*
X152743800Y-100805800D02*
X152481200Y-101072500D01*
X153479200Y-100946000D02*
X152743800Y-100805800D01*
X153625300Y-101290600D02*
X153479200Y-100946000D01*
X153962700Y-102086400D02*
X153625300Y-101290600D01*
X153962700Y-102086400D02*
X153972100Y-102108000D01*
X153976200Y-102117200D02*
X153972100Y-102108000D01*
X154028900Y-102235300D02*
X153976200Y-102117200D01*
X154063100Y-102491700D02*
X154028900Y-102235300D01*
X154043200Y-102619500D02*
X154063100Y-102491700D01*
X153936600Y-103304500D02*
X154043200Y-102619500D01*
X153921900Y-103447200D02*
X153921900Y-103495000D01*
X153929200Y-103351800D02*
X153921900Y-103447200D01*
X153936600Y-103304500D02*
X153929200Y-103351800D01*
X153921900Y-103495000D02*
X153922000Y-103509300D01*
X153923500Y-103635600D02*
X153922000Y-103509300D01*
X153924600Y-103736700D02*
X153923500Y-103635600D01*
X153904900Y-103937900D02*
X153924600Y-103736700D01*
X153884000Y-104036800D02*
X153904900Y-103937900D01*
X153277600Y-106913200D02*
X153884000Y-104036800D01*
X153231700Y-107335300D02*
X153244500Y-107476600D01*
X153248300Y-107052000D02*
X153231700Y-107335300D01*
X153277600Y-106913200D02*
X153248300Y-107052000D01*
X153271500Y-107774100D02*
X153244500Y-107476600D01*
X153301000Y-107982500D02*
X153317600Y-108050700D01*
X153277800Y-107844000D02*
X153301000Y-107982500D01*
X153271500Y-107774100D02*
X153277800Y-107844000D01*
X153530600Y-108919500D02*
X153317600Y-108050700D01*
X145861000Y-102428000D02*
X146561000Y-102478000D01*
X145761000Y-102428000D02*
X145861000Y-102428000D01*
X145676100Y-102428000D02*
X145761000Y-102428000D01*
X145510200Y-102392400D02*
X145676100Y-102428000D01*
X145432800Y-102357600D02*
X145510200Y-102392400D01*
X144466900Y-101923000D02*
X145432800Y-102357600D01*
X150861000Y-103015100D02*
X150161000Y-102978000D01*
X150961000Y-103015100D02*
X150861000Y-103015100D01*
X152084200Y-103015100D02*
X150961000Y-103015100D01*
X145861000Y-102928000D02*
X146561000Y-102978000D01*
X145761000Y-102928000D02*
X145861000Y-102928000D01*
X145744600Y-102928000D02*
X145761000Y-102928000D01*
X145711800Y-102926600D02*
X145744600Y-102928000D01*
X145695400Y-102925300D02*
X145711800Y-102926600D01*
X144485200Y-102825700D02*
X145695400Y-102925300D01*
X150861000Y-103528000D02*
X150161000Y-103478000D01*
X150961000Y-103528000D02*
X150861000Y-103528000D01*
X151021300Y-103528000D02*
X150961000Y-103528000D01*
X151141600Y-103536000D02*
X151021300Y-103528000D01*
X151201400Y-103544100D02*
X151141600Y-103536000D01*
X151998400Y-103651500D02*
X151201400Y-103544100D01*
X152062700Y-103657300D02*
X152084200Y-103657300D01*
X152019700Y-103654400D02*
X152062700Y-103657300D01*
X151998400Y-103651500D02*
X152019700Y-103654400D01*
X145861000Y-103528000D02*
X146561000Y-103478000D01*
X145761000Y-103528000D02*
X145861000Y-103528000D01*
X145712600Y-103530600D02*
X145696700Y-103533200D01*
X145744800Y-103528000D02*
X145712600Y-103530600D01*
X145761000Y-103528000D02*
X145744800Y-103528000D01*
X144595900Y-103712500D02*
X145696700Y-103533200D01*
X150861000Y-104028000D02*
X150161000Y-103978000D01*
X150961000Y-104028000D02*
X150861000Y-104028000D01*
X151026200Y-104028000D02*
X150961000Y-104028000D01*
X151155800Y-104041000D02*
X151026200Y-104028000D01*
X151219700Y-104054000D02*
X151155800Y-104041000D01*
X151239200Y-104058000D02*
X151219700Y-104054000D01*
X151285800Y-104068300D02*
X151239200Y-104058000D01*
X151948200Y-104226500D02*
X151285800Y-104068300D01*
X152677500Y-103929200D02*
X152669200Y-103640500D01*
X152229200Y-104293600D02*
X152677500Y-103929200D01*
X151948200Y-104226500D02*
X152229200Y-104293600D01*
X152667000Y-103565900D02*
X152669200Y-103640500D01*
X152666700Y-103436000D02*
X152667000Y-103565900D01*
X152676400Y-103029300D02*
X152666700Y-103436000D01*
X152650500Y-102828500D02*
X152622100Y-102766800D01*
X152678000Y-102961400D02*
X152650500Y-102828500D01*
X152676400Y-103029300D02*
X152678000Y-102961400D01*
X152330800Y-102135900D02*
X152622100Y-102766800D01*
X147261000Y-103928000D02*
X146561000Y-103978000D01*
X147361000Y-103928000D02*
X147261000Y-103928000D01*
X147760000Y-103695400D02*
X147761000Y-103530400D01*
X147526000Y-103928000D02*
X147760000Y-103695400D01*
X147361000Y-103928000D02*
X147526000Y-103928000D01*
X147761600Y-103430400D02*
X147761000Y-103530400D01*
X147761600Y-103428000D02*
X147761600Y-103430400D01*
X147761600Y-101328000D02*
X147761600Y-103428000D01*
X147720300Y-101139300D02*
X147681200Y-101087200D01*
X147761600Y-101262900D02*
X147720300Y-101139300D01*
X147761600Y-101328000D02*
X147761600Y-101262900D01*
X147140800Y-100368800D02*
X147681200Y-101087200D01*
X147101700Y-100316700D02*
X147140800Y-100368800D01*
X147060400Y-100193100D02*
X147101700Y-100316700D01*
X147060400Y-100128000D02*
X147060400Y-100193100D01*
X147060400Y-99328000D02*
X147060400Y-100128000D01*
X147060400Y-99171500D02*
X147060400Y-99328000D01*
X147272500Y-98941400D02*
X147060400Y-99171500D01*
X147428400Y-98928700D02*
X147272500Y-98941400D01*
X153330700Y-98447100D02*
X147428400Y-98928700D01*
X153360200Y-98444700D02*
X153330700Y-98447100D01*
X153419300Y-98444900D02*
X153360200Y-98444700D01*
X153448800Y-98447500D02*
X153419300Y-98444900D01*
X155179200Y-98598900D02*
X153448800Y-98447500D01*
X150861000Y-104528000D02*
X150161000Y-104478000D01*
X150961000Y-104528000D02*
X150861000Y-104528000D01*
X151005400Y-104528000D02*
X150961000Y-104528000D01*
X151093900Y-104534100D02*
X151005400Y-104528000D01*
X151137800Y-104540100D02*
X151093900Y-104534100D01*
X151947700Y-104651300D02*
X151137800Y-104540100D01*
X153092300Y-103854900D02*
X153087200Y-103634500D01*
X152916700Y-104259200D02*
X153092300Y-103854900D01*
X152587700Y-104552700D02*
X152916700Y-104259200D01*
X152166100Y-104681300D02*
X152587700Y-104552700D01*
X151947700Y-104651300D02*
X152166100Y-104681300D01*
X153085100Y-103541600D02*
X153087200Y-103634500D01*
X153084000Y-103489500D02*
X153085100Y-103541600D01*
X153086900Y-103385300D02*
X153084000Y-103489500D01*
X153091000Y-103333300D02*
X153086900Y-103385300D01*
X153158300Y-102481900D02*
X153091000Y-103333300D01*
X147261000Y-104428000D02*
X146561000Y-104478000D01*
X147361000Y-104428000D02*
X147261000Y-104428000D01*
X148226700Y-103955700D02*
X148257500Y-103607300D01*
X147710700Y-104428000D02*
X148226700Y-103955700D01*
X147361000Y-104428000D02*
X147710700Y-104428000D01*
X148413500Y-101844200D02*
X148257500Y-103607300D01*
X148422800Y-101739000D02*
X148413500Y-101844200D01*
X148487200Y-101537800D02*
X148422800Y-101739000D01*
X148540600Y-101446700D02*
X148487200Y-101537800D01*
X148584200Y-101372300D02*
X148540600Y-101446700D01*
X148692400Y-101187800D02*
X148584200Y-101372300D01*
X149051700Y-100955600D02*
X148692400Y-101187800D01*
X149264300Y-100932600D02*
X149051700Y-100955600D01*
X150002600Y-100852800D02*
X149264300Y-100932600D01*
X150042600Y-100841700D02*
X150054100Y-100833900D01*
X150016400Y-100851300D02*
X150042600Y-100841700D01*
X150002600Y-100852800D02*
X150016400Y-100851300D01*
X151710800Y-99703500D02*
X150054100Y-100833900D01*
X151878100Y-99589400D02*
X151710800Y-99703500D01*
X152247900Y-99424500D02*
X151878100Y-99589400D01*
X152444600Y-99376300D02*
X152247900Y-99424500D01*
X153387700Y-99145400D02*
X152444600Y-99376300D01*
X150861000Y-105028000D02*
X150161000Y-104978000D01*
X150961000Y-105028000D02*
X150861000Y-105028000D01*
X150998800Y-105028900D02*
X150961000Y-105028000D01*
X152017000Y-105077100D02*
X150998800Y-105028900D01*
X153510300Y-103928000D02*
X153505400Y-103633400D01*
X153285300Y-104472500D02*
X153510300Y-103928000D01*
X152862400Y-104882700D02*
X153285300Y-104472500D01*
X152311300Y-105091000D02*
X152862400Y-104882700D01*
X152017000Y-105077100D02*
X152311300Y-105091000D01*
X153503500Y-103522500D02*
X153505400Y-103633400D01*
X153503300Y-103495000D02*
X153503500Y-103522500D01*
X153503300Y-103400200D02*
X153503300Y-103495000D01*
X153524900Y-103211800D02*
X153503300Y-103400200D01*
X153546400Y-103119400D02*
X153524900Y-103211800D01*
X153667100Y-102600200D02*
X153546400Y-103119400D01*
X153623500Y-102208500D02*
X153528000Y-102112800D01*
X153697700Y-102468500D02*
X153623500Y-102208500D01*
X153667100Y-102600200D02*
X153697700Y-102468500D01*
X152980300Y-101564100D02*
X153528000Y-102112800D01*
X145861000Y-104928000D02*
X146561000Y-104978000D01*
X145761000Y-104928000D02*
X145861000Y-104928000D01*
X145715700Y-104928000D02*
X145761000Y-104928000D01*
X145627500Y-104907800D02*
X145715700Y-104928000D01*
X145586800Y-104888100D02*
X145627500Y-104907800D01*
X144323000Y-104276800D02*
X145586800Y-104888100D01*
X144188200Y-104211600D02*
X144323000Y-104276800D01*
X144006700Y-103973400D02*
X144188200Y-104211600D01*
X143979500Y-103826200D02*
X144006700Y-103973400D01*
X143433400Y-100866600D02*
X143979500Y-103826200D01*
X140435300Y-102921800D02*
X139559100Y-99602200D01*
X140441900Y-102946800D02*
X140435300Y-102921800D01*
X140448600Y-102998100D02*
X140441900Y-102946800D01*
X140448600Y-103024000D02*
X140448600Y-102998100D01*
X140448600Y-104224000D02*
X140448600Y-103024000D01*
X140448500Y-104233000D02*
X140448600Y-104224000D01*
X140443300Y-104466100D02*
X140448500Y-104233000D01*
X140443300Y-104466100D02*
X140443100Y-104487000D01*
X140448600Y-105221000D02*
X140443100Y-104487000D01*
X140448600Y-105224000D02*
X140448600Y-105221000D01*
X140448600Y-106324000D02*
X140448600Y-105224000D01*
X140448600Y-106324800D02*
X140448600Y-106324000D01*
X140448400Y-106424800D02*
X140448600Y-106324800D01*
X140448300Y-106451100D02*
X140448400Y-106424800D01*
X140441400Y-106503100D02*
X140448300Y-106451100D01*
X140434500Y-106528500D02*
X140441400Y-106503100D01*
X140430300Y-106544000D02*
X140434500Y-106528500D01*
X140342600Y-107237300D02*
X140377700Y-107468700D01*
X140369200Y-106769900D02*
X140342600Y-107237300D01*
X140430300Y-106544000D02*
X140369200Y-106769900D01*
X140493200Y-108231100D02*
X140377700Y-107468700D01*
X140695000Y-108849000D02*
X140826300Y-109023300D01*
X140525900Y-108446800D02*
X140695000Y-108849000D01*
X140493200Y-108231100D02*
X140525900Y-108446800D01*
X142280000Y-110951600D02*
X140826300Y-109023300D01*
X143488800Y-111916200D02*
X144004700Y-112006400D01*
X142595300Y-111369800D02*
X143488800Y-111916200D01*
X142280000Y-110951600D02*
X142595300Y-111369800D01*
X147125100Y-112551300D02*
X144004700Y-112006400D01*
X147376600Y-112580400D02*
X147461000Y-112580400D01*
X147208300Y-112565800D02*
X147376600Y-112580400D01*
X147125100Y-112551300D02*
X147208300Y-112565800D01*
X149261000Y-112580400D02*
X147461000Y-112580400D01*
X149453200Y-112572000D02*
X149516800Y-112563600D01*
X149325200Y-112580400D02*
X149453200Y-112572000D01*
X149261000Y-112580400D02*
X149325200Y-112580400D01*
X150309300Y-112458800D02*
X149516800Y-112563600D01*
X150359800Y-112452200D02*
X150309300Y-112458800D01*
X150461500Y-112453600D02*
X150359800Y-112452200D01*
X150511800Y-112461600D02*
X150461500Y-112453600D01*
X150600600Y-112475800D02*
X150511800Y-112461600D01*
X151319900Y-112395500D02*
X151515700Y-112247200D01*
X150843200Y-112514600D02*
X151319900Y-112395500D01*
X150600600Y-112475800D02*
X150843200Y-112514600D01*
X152233700Y-111703300D02*
X151515700Y-112247200D01*
X152639100Y-111185500D02*
X152672400Y-110965100D01*
X152411400Y-111568700D02*
X152639100Y-111185500D01*
X152233700Y-111703300D02*
X152411400Y-111568700D01*
X152809700Y-110055400D02*
X152672400Y-110965100D01*
X152839600Y-109757400D02*
X152839600Y-109657500D01*
X152824600Y-109956600D02*
X152839600Y-109757400D01*
X152809700Y-110055400D02*
X152824600Y-109956600D01*
X152839600Y-109424100D02*
X152839600Y-109657500D01*
X152839600Y-109424100D02*
X152839600Y-109413700D01*
X152839500Y-109388000D02*
X152839600Y-109413700D01*
X152839500Y-109388000D02*
X152839300Y-109368900D01*
X152834400Y-108927200D02*
X152839300Y-109368900D01*
X152834200Y-108905600D02*
X152834400Y-108927200D01*
X152836400Y-108862500D02*
X152834200Y-108905600D01*
X152838800Y-108841000D02*
X152836400Y-108862500D01*
X152838900Y-108841000D02*
X152838800Y-108841000D01*
X152851900Y-108648500D02*
X152850400Y-108584200D01*
X152846200Y-108777100D02*
X152851900Y-108648500D01*
X152838900Y-108841000D02*
X152846200Y-108777100D01*
X152847500Y-108459200D02*
X152850400Y-108584200D01*
X152847500Y-108459200D02*
X152841200Y-108343400D01*
X152826500Y-108169700D02*
X152841200Y-108343400D01*
X152678400Y-107552700D02*
X152569500Y-107370000D01*
X152808500Y-107957800D02*
X152678400Y-107552700D01*
X152826500Y-108169700D02*
X152808500Y-107957800D01*
X151734300Y-105967500D02*
X152569500Y-107370000D01*
X151198900Y-105528000D02*
X150961000Y-105528000D01*
X151612600Y-105763100D02*
X151198900Y-105528000D01*
X151734300Y-105967500D02*
X151612600Y-105763100D01*
X150861000Y-105528000D02*
X150961000Y-105528000D01*
X150161000Y-105478000D02*
X150861000Y-105528000D01*
X138959000Y-99602200D02*
X139559100Y-99602200D01*
X138859000Y-99602200D02*
X138959000Y-99602200D01*
X138709000Y-99687000D02*
X138859000Y-99602200D01*
X145861000Y-105528000D02*
X146561000Y-105478000D01*
X145761000Y-105528000D02*
X145861000Y-105528000D01*
X145714600Y-105529200D02*
X145699200Y-105530400D01*
X145745500Y-105528000D02*
X145714600Y-105529200D01*
X145761000Y-105528000D02*
X145745500Y-105528000D01*
X144391100Y-105631800D02*
X145699200Y-105530400D01*
X150861000Y-106028000D02*
X150161000Y-105978000D01*
X150961000Y-106028000D02*
X150861000Y-106028000D01*
X151066200Y-106028000D02*
X150961000Y-106028000D01*
X151249400Y-106131600D02*
X151066200Y-106028000D01*
X151303700Y-106221800D02*
X151249400Y-106131600D01*
X152143100Y-107616800D02*
X151303700Y-106221800D01*
X152228700Y-107759200D02*
X152143100Y-107616800D01*
X152327500Y-108076300D02*
X152228700Y-107759200D01*
X152337800Y-108242100D02*
X152327500Y-108076300D01*
X152348700Y-108416400D02*
X152337800Y-108242100D01*
X152351200Y-108479600D02*
X152348700Y-108416400D01*
X152353300Y-108604600D02*
X152351200Y-108479600D01*
X152354000Y-108649800D02*
X152353300Y-108604600D01*
X152349700Y-108740100D02*
X152354000Y-108649800D01*
X152344600Y-108785000D02*
X152349700Y-108740100D01*
X152336900Y-108889400D02*
X152337000Y-108924300D01*
X152340700Y-108819700D02*
X152336900Y-108889400D01*
X152344600Y-108785000D02*
X152340700Y-108819700D01*
X152338900Y-109389700D02*
X152337000Y-108924300D01*
X152338900Y-109390000D02*
X152338900Y-109389700D01*
X152339000Y-109415700D02*
X152338900Y-109390000D01*
X152339000Y-109424100D02*
X152339000Y-109415700D01*
X152339000Y-109657500D02*
X152339000Y-109424100D01*
X152339000Y-109723800D02*
X152339000Y-109657500D01*
X152330900Y-109856000D02*
X152339000Y-109723800D01*
X152322800Y-109921800D02*
X152330900Y-109856000D01*
X152205400Y-110876100D02*
X152322800Y-109921800D01*
X152188400Y-111014800D02*
X152205400Y-110876100D01*
X152045500Y-111255000D02*
X152188400Y-111014800D01*
X151931700Y-111336100D02*
X152045500Y-111255000D01*
X151197300Y-111860100D02*
X151931700Y-111336100D01*
X151084900Y-111940200D02*
X151197300Y-111860100D01*
X150816000Y-112003300D02*
X151084900Y-111940200D01*
X150679700Y-111981500D02*
X150816000Y-112003300D01*
X150590900Y-111967300D02*
X150679700Y-111981500D01*
X150330200Y-111951100D02*
X150243700Y-111962600D01*
X150504700Y-111953500D02*
X150330200Y-111951100D01*
X150590900Y-111967300D02*
X150504700Y-111953500D01*
X149451200Y-112067300D02*
X150243700Y-111962600D01*
X149403900Y-112073500D02*
X149451200Y-112067300D01*
X149308700Y-112079800D02*
X149403900Y-112073500D01*
X149261000Y-112079800D02*
X149308700Y-112079800D01*
X147461000Y-112079800D02*
X149261000Y-112079800D01*
X147398200Y-112079900D02*
X147461000Y-112079800D01*
X147273100Y-112069000D02*
X147398200Y-112079900D01*
X147211200Y-112058200D02*
X147273100Y-112069000D01*
X144090800Y-111513200D02*
X147211200Y-112058200D01*
X143668700Y-111439500D02*
X144090800Y-111513200D01*
X142937600Y-110992400D02*
X143668700Y-111439500D01*
X142679700Y-110650300D02*
X142937600Y-110992400D01*
X141226100Y-108722000D02*
X142679700Y-110650300D01*
X141132400Y-108597600D02*
X141226100Y-108722000D01*
X141011600Y-108310600D02*
X141132400Y-108597600D01*
X140988200Y-108156600D02*
X141011600Y-108310600D01*
X140872400Y-107394500D02*
X140988200Y-108156600D01*
X140845100Y-107214300D02*
X140872400Y-107394500D01*
X140865700Y-106850500D02*
X140845100Y-107214300D01*
X140913300Y-106674600D02*
X140865700Y-106850500D01*
X140917500Y-106659100D02*
X140913300Y-106674600D01*
X140940800Y-106549300D02*
X140944400Y-106512000D01*
X140927300Y-106622900D02*
X140940800Y-106549300D01*
X140917500Y-106659100D02*
X140927300Y-106622900D01*
X141143700Y-104481800D02*
X140944400Y-106512000D01*
X145861000Y-106028000D02*
X146561000Y-105978000D01*
X145761000Y-106028000D02*
X145861000Y-106028000D01*
X145348900Y-106087200D02*
X145222000Y-106145000D01*
X145621500Y-106028000D02*
X145348900Y-106087200D01*
X145761000Y-106028000D02*
X145621500Y-106028000D01*
X144410800Y-106514600D02*
X145222000Y-106145000D01*
X142858300Y-107668700D02*
X142603700Y-107131600D01*
X142867700Y-107688800D02*
X142858300Y-107668700D01*
X142884200Y-107730100D02*
X142867700Y-107688800D01*
X142891100Y-107751200D02*
X142884200Y-107730100D01*
X143063700Y-108279300D02*
X142891100Y-107751200D01*
X143147000Y-108478500D02*
X143185000Y-108539800D01*
X143086100Y-108347800D02*
X143147000Y-108478500D01*
X143063700Y-108279300D02*
X143086100Y-108347800D01*
X143883100Y-109664000D02*
X143185000Y-108539800D01*
X144468200Y-110035900D02*
X144698800Y-109959400D01*
X144011300Y-109870400D02*
X144468200Y-110035900D01*
X143883100Y-109664000D02*
X144011300Y-109870400D01*
X147644400Y-108982800D02*
X144698800Y-109959400D01*
X148054800Y-108725000D02*
X148137800Y-108583700D01*
X147800000Y-108931200D02*
X148054800Y-108725000D01*
X147644400Y-108982800D02*
X147800000Y-108931200D01*
X148181400Y-108509300D02*
X148137800Y-108583700D01*
X148279800Y-108287000D02*
X148295200Y-108207200D01*
X148222500Y-108439200D02*
X148279800Y-108287000D01*
X148181400Y-108509300D02*
X148222500Y-108439200D01*
X148477100Y-107258500D02*
X148295200Y-108207200D01*
X148538100Y-106940500D02*
X148477100Y-107258500D01*
X149037200Y-106528000D02*
X148538100Y-106940500D01*
X149361000Y-106528000D02*
X149037200Y-106528000D01*
X149461000Y-106528000D02*
X149361000Y-106528000D01*
X150161000Y-106478000D02*
X149461000Y-106528000D01*
X142709400Y-104545800D02*
X142603700Y-107131600D01*
X142679200Y-104141100D02*
X142638500Y-104011700D01*
X142714900Y-104410200D02*
X142679200Y-104141100D01*
X142709400Y-104545800D02*
X142714900Y-104410200D01*
X141810000Y-101377100D02*
X142638500Y-104011700D01*
X141723400Y-101101900D02*
X141810000Y-101377100D01*
X141741400Y-100525300D02*
X141723400Y-101101900D01*
X141844900Y-100256000D02*
X141741400Y-100525300D01*
X143112100Y-96959700D02*
X141844900Y-100256000D01*
X143189000Y-96720600D02*
X143205600Y-96638500D01*
X143142200Y-96881500D02*
X143189000Y-96720600D01*
X143112100Y-96959700D02*
X143142200Y-96881500D01*
X144551000Y-89992200D02*
X143205600Y-96638500D01*
X142784200Y-100603100D02*
X147091000Y-89992200D01*
X142727200Y-100940300D02*
X142757700Y-101051600D01*
X142740800Y-100710000D02*
X142727200Y-100940300D01*
X142784200Y-100603100D02*
X142740800Y-100710000D01*
X143518700Y-103831600D02*
X142757700Y-101051600D01*
X143551100Y-103949800D02*
X143518700Y-103831600D01*
X143592000Y-104191500D02*
X143551100Y-103949800D01*
X143600400Y-104313800D02*
X143592000Y-104191500D01*
X143693700Y-105679500D02*
X143600400Y-104313800D01*
X143693700Y-105679500D02*
X143697500Y-105718800D01*
X143806800Y-106590300D02*
X143697500Y-105718800D01*
X144502700Y-107212300D02*
X144782400Y-106996700D01*
X143850700Y-106940700D02*
X144502700Y-107212300D01*
X143806800Y-106590300D02*
X143850700Y-106940700D01*
X144994500Y-106833300D02*
X144782400Y-106996700D01*
X145039800Y-106798400D02*
X144994500Y-106833300D01*
X145136300Y-106737100D02*
X145039800Y-106798400D01*
X145187200Y-106711000D02*
X145136300Y-106737100D01*
X145349800Y-106627400D02*
X145187200Y-106711000D01*
X145445200Y-106578400D02*
X145349800Y-106627400D01*
X145653700Y-106528000D02*
X145445200Y-106578400D01*
X145761000Y-106528000D02*
X145653700Y-106528000D01*
X145861000Y-106528000D02*
X145761000Y-106528000D01*
X146561000Y-106478000D02*
X145861000Y-106528000D01*
X141970700Y-107431400D02*
X142225200Y-107968800D01*
X141917200Y-107318400D02*
X141970700Y-107431400D01*
X141895000Y-107069500D02*
X141917200Y-107318400D01*
X141927600Y-106948800D02*
X141895000Y-107069500D01*
X141931800Y-106933300D02*
X141927600Y-106948800D01*
X141974200Y-106743700D02*
X141982600Y-106679400D01*
X141948700Y-106870700D02*
X141974200Y-106743700D01*
X141931800Y-106933300D02*
X141948700Y-106870700D01*
X142253400Y-104628300D02*
X141982600Y-106679400D01*
X142245500Y-104246700D02*
X142204700Y-104125400D01*
X142270100Y-104501400D02*
X142245500Y-104246700D01*
X142253400Y-104628300D02*
X142270100Y-104501400D01*
X141345600Y-101567900D02*
X142204700Y-104125400D01*
X141223300Y-101203500D02*
X141345600Y-101567900D01*
X141239800Y-100435000D02*
X141223300Y-101203500D01*
X141377700Y-100076300D02*
X141239800Y-100435000D01*
X142644800Y-96780100D02*
X141377700Y-100076300D01*
X142728400Y-96484900D02*
X142738100Y-96382900D01*
X142681600Y-96684400D02*
X142728400Y-96484900D01*
X142644800Y-96780100D02*
X142681600Y-96684400D01*
X143259800Y-90880000D02*
X142738100Y-96382900D01*
X143259800Y-90880000D02*
X143261200Y-90859700D01*
X143301600Y-89937500D02*
X143261200Y-90859700D01*
X143320400Y-89506500D02*
X143301600Y-89937500D01*
X143881600Y-88851100D02*
X143320400Y-89506500D01*
X144304500Y-88766100D02*
X143881600Y-88851100D01*
X146745900Y-88275300D02*
X144304500Y-88766100D01*
X147165600Y-88190900D02*
X146745900Y-88275300D01*
X147988300Y-88428500D02*
X147165600Y-88190900D01*
X148298400Y-88723700D02*
X147988300Y-88428500D01*
X149631000Y-89992200D02*
X148298400Y-88723700D01*
X143461600Y-109934000D02*
X142225200Y-107968800D01*
X144020600Y-110433800D02*
X144271700Y-110477700D01*
X143597300Y-110149700D02*
X144020600Y-110433800D01*
X143461600Y-109934000D02*
X143597300Y-110149700D01*
X147392100Y-111022600D02*
X144271700Y-110477700D01*
X147443700Y-111028600D02*
X147461000Y-111028600D01*
X147409200Y-111025600D02*
X147443700Y-111028600D01*
X147392100Y-111022600D02*
X147409200Y-111025600D01*
X149261000Y-111028600D02*
X147461000Y-111028600D01*
X149557500Y-110918500D02*
X149610600Y-110823600D01*
X149369800Y-111028600D02*
X149557500Y-110918500D01*
X149261000Y-111028600D02*
X149369800Y-111028600D01*
X150084300Y-109977200D02*
X149610600Y-110823600D01*
X150120700Y-109912100D02*
X150084300Y-109977200D01*
X150204800Y-109789000D02*
X150120700Y-109912100D01*
X150252100Y-109731400D02*
X150204800Y-109789000D01*
X150256700Y-109725800D02*
X150252100Y-109731400D01*
X150280700Y-109678000D02*
X150281200Y-109660000D01*
X150268200Y-109711900D02*
X150280700Y-109678000D01*
X150256700Y-109725800D02*
X150268200Y-109711900D01*
X150286600Y-109426700D02*
X150281200Y-109660000D01*
X150286600Y-109423700D02*
X150286600Y-109426700D01*
X150286500Y-109398000D02*
X150286600Y-109423700D01*
X150269200Y-109334400D02*
X150253400Y-109318600D01*
X150286400Y-109375600D02*
X150269200Y-109334400D01*
X150286500Y-109398000D02*
X150286400Y-109375600D01*
X150070300Y-109135500D02*
X150253400Y-109318600D01*
X150022200Y-109105300D02*
X150003100Y-109103100D01*
X150056700Y-109121900D02*
X150022200Y-109105300D01*
X150070300Y-109135500D02*
X150056700Y-109121900D01*
X149316400Y-109026100D02*
X150003100Y-109103100D01*
X149164400Y-109009100D02*
X149316400Y-109026100D01*
X148960400Y-108781000D02*
X149164400Y-109009100D01*
X148960400Y-108628000D02*
X148960400Y-108781000D01*
X148960400Y-107528000D02*
X148960400Y-108628000D01*
X148960400Y-107525600D02*
X148960400Y-107528000D01*
X148961000Y-107425600D02*
X148960400Y-107525600D01*
X148962000Y-107260600D02*
X148961000Y-107425600D01*
X149196000Y-107028000D02*
X148962000Y-107260600D01*
X149361000Y-107028000D02*
X149196000Y-107028000D01*
X149461000Y-107028000D02*
X149361000Y-107028000D01*
X150161000Y-106978000D02*
X149461000Y-107028000D01*
X145861000Y-107028000D02*
X146561000Y-106978000D01*
X145761000Y-107028000D02*
X145861000Y-107028000D01*
X145418600Y-107095500D02*
X145320600Y-107160200D01*
X145643600Y-107028000D02*
X145418600Y-107095500D01*
X145761000Y-107028000D02*
X145643600Y-107028000D01*
X145090800Y-107311700D02*
X145320600Y-107160200D01*
X145090800Y-107311700D02*
X145033900Y-107351500D01*
X145034000Y-107351600D02*
X145033900Y-107351500D01*
X144990000Y-107382600D02*
X145034000Y-107351600D01*
X144205500Y-107906100D02*
X144990000Y-107382600D01*
X150861000Y-107528000D02*
X150161000Y-107478000D01*
X150961000Y-107528000D02*
X150861000Y-107528000D01*
X151087500Y-107528000D02*
X150961000Y-107528000D01*
X151328200Y-107606000D02*
X151087500Y-107528000D01*
X151430600Y-107680300D02*
X151328200Y-107606000D01*
X151490000Y-107723400D02*
X151430600Y-107680300D01*
X151665400Y-107850500D02*
X151490000Y-107723400D01*
X151862200Y-108236400D02*
X151665400Y-107850500D01*
X151862200Y-108453000D02*
X151862200Y-108236400D01*
X151862200Y-108503000D02*
X151862200Y-108453000D01*
X151861200Y-108546300D02*
X151862200Y-108503000D01*
X151855200Y-108671000D02*
X151861200Y-108546300D01*
X151850500Y-108728900D02*
X151855200Y-108671000D01*
X151839800Y-108869500D02*
X151839700Y-108916500D01*
X151845200Y-108775600D02*
X151839800Y-108869500D01*
X151850500Y-108728900D02*
X151845200Y-108775600D01*
X151838400Y-109660400D02*
X151839700Y-108916500D01*
X151838200Y-109796100D02*
X151838400Y-109660400D01*
X151793800Y-110063800D02*
X151838200Y-109796100D01*
X151750200Y-110192300D02*
X151793800Y-110063800D01*
X151545700Y-110795000D02*
X151750200Y-110192300D01*
X150246700Y-91080700D02*
X152171000Y-89992200D01*
X149981700Y-91230600D02*
X150246700Y-91080700D01*
X149373200Y-91253300D02*
X149981700Y-91230600D01*
X148822400Y-90993600D02*
X149373200Y-91253300D01*
X148452500Y-90509800D02*
X148822400Y-90993600D01*
X148399500Y-90210000D02*
X148452500Y-90509800D01*
X148322500Y-89774400D02*
X148399500Y-90210000D01*
X145938700Y-89326400D02*
X145859500Y-89774400D01*
X146636000Y-88741600D02*
X145938700Y-89326400D01*
X147546000Y-88741600D02*
X146636000Y-88741600D01*
X148243300Y-89326400D02*
X147546000Y-88741600D01*
X148322500Y-89774400D02*
X148243300Y-89326400D01*
X145782500Y-90210000D02*
X145859500Y-89774400D01*
X145775200Y-90251200D02*
X145782500Y-90210000D01*
X145755100Y-90332400D02*
X145775200Y-90251200D01*
X145742400Y-90372300D02*
X145755100Y-90332400D01*
X143627600Y-97001900D02*
X145742400Y-90372300D01*
X143579300Y-97139300D02*
X143627600Y-97001900D01*
X142312200Y-100435600D02*
X143579300Y-97139300D01*
X142225200Y-101015400D02*
X142280900Y-101205200D01*
X142241200Y-100620200D02*
X142225200Y-101015400D01*
X142312200Y-100435600D02*
X142241200Y-100620200D01*
X143076700Y-103913900D02*
X142280900Y-101205200D01*
X143113800Y-104040200D02*
X143076700Y-103913900D01*
X143154500Y-104300400D02*
X143113800Y-104040200D01*
X143157800Y-104432000D02*
X143154500Y-104300400D01*
X143210000Y-106544300D02*
X143157800Y-104432000D01*
X143228500Y-106736400D02*
X143243700Y-106799000D01*
X143211600Y-106608700D02*
X143228500Y-106736400D01*
X143210000Y-106544300D02*
X143211600Y-106608700D01*
X143284400Y-106965700D02*
X143243700Y-106799000D01*
X143288400Y-106983100D02*
X143284400Y-106965700D01*
X143520800Y-108054600D02*
X143288400Y-106983100D01*
X144630100Y-108499400D02*
X144756000Y-108339500D01*
X144246300Y-108634500D02*
X144630100Y-108499400D01*
X143849800Y-108543100D02*
X144246300Y-108634500D01*
X143563900Y-108253400D02*
X143849800Y-108543100D01*
X143520800Y-108054600D02*
X143563900Y-108253400D01*
X145146100Y-107843900D02*
X144756000Y-108339500D01*
X145231100Y-107736000D02*
X145146100Y-107843900D01*
X145464300Y-107590900D02*
X145231100Y-107736000D01*
X145598700Y-107562400D02*
X145464300Y-107590900D01*
X145761000Y-107528000D02*
X145598700Y-107562400D01*
X145861000Y-107528000D02*
X145761000Y-107528000D01*
X146561000Y-107478000D02*
X145861000Y-107528000D01*
X139478500Y-102162000D02*
X139359000Y-101887000D01*
X139478500Y-102262000D02*
X139478500Y-102162000D01*
X139478500Y-103024000D02*
X139478500Y-102262000D01*
X139478500Y-103124000D02*
X139478500Y-103024000D01*
X139598000Y-103624000D02*
X139478500Y-103124000D01*
X167509700Y-106955200D02*
X167690700Y-107714100D01*
X167508400Y-106949500D02*
X167509700Y-106955200D01*
X167507000Y-106937900D02*
X167508400Y-106949500D01*
X167507000Y-106932000D02*
X167507000Y-106937900D01*
X167507000Y-106832000D02*
X167507000Y-106932000D01*
X167157000Y-106332000D02*
X167507000Y-106832000D01*
X138003000Y-107286000D02*
X138059000Y-107561000D01*
X138003000Y-107186000D02*
X138003000Y-107286000D01*
X138003000Y-106424000D02*
X138003000Y-107186000D01*
X138003000Y-106324000D02*
X138003000Y-106424000D01*
X137947000Y-105824000D02*
X138003000Y-106324000D01*
M02*
