G04 #@! TF.FileFunction,Soldermask,Top*
%FSLAX46Y46*%
G04 Gerber Fmt 4.6, Leading zero omitted, Abs format (unit mm)*
G04 Created by KiCad (PCBNEW 4.0.7) date 06/27/18 00:10:41*
%MOMM*%
%LPD*%
G01*
G04 APERTURE LIST*
%ADD10C,0.150000*%
%ADD11R,1.600000X1.150000*%
%ADD12R,1.600000X1.300000*%
%ADD13R,1.750000X0.800000*%
%ADD14R,2.000000X2.500000*%
%ADD15R,2.200000X2.300000*%
%ADD16R,1.300000X1.600000*%
%ADD17C,1.050000*%
%ADD18R,2.100000X1.600000*%
%ADD19O,2.100000X1.600000*%
%ADD20R,1.450000X1.050000*%
%ADD21R,2.100000X2.100000*%
%ADD22O,2.100000X2.100000*%
%ADD23O,2.900000X1.300000*%
%ADD24O,1.300000X2.900000*%
%ADD25C,2.600000*%
G04 APERTURE END LIST*
D10*
D11*
X163027000Y-106756000D03*
X161127000Y-106756000D03*
D12*
X166987000Y-96469200D03*
X164787000Y-96469200D03*
X162628000Y-112471000D03*
X164828000Y-112471000D03*
X131300000Y-99644200D03*
X129100000Y-99644200D03*
D13*
X165519000Y-106335000D03*
X165519000Y-105685000D03*
X165519000Y-105035000D03*
X165519000Y-104385000D03*
X165519000Y-103735000D03*
D14*
X165669000Y-108135000D03*
X165669000Y-101935000D03*
D15*
X169096000Y-106185000D03*
X169096000Y-103885000D03*
X169096000Y-109035000D03*
X169096000Y-101035000D03*
D12*
X164787000Y-98755200D03*
X166987000Y-98755200D03*
D16*
X160045000Y-114927000D03*
X160045000Y-117127000D03*
X158331000Y-94036200D03*
X158331000Y-96236200D03*
X160363000Y-94036200D03*
X160363000Y-96236200D03*
X132994000Y-99474200D03*
X132994000Y-97274200D03*
D11*
X163027000Y-103962000D03*
X161127000Y-103962000D03*
D12*
X168638000Y-112471000D03*
X166438000Y-112471000D03*
D17*
X149861000Y-100428000D03*
X149861000Y-109528000D03*
D18*
X132613000Y-104089000D03*
D19*
X132613000Y-106089000D03*
D18*
X130327000Y-114503000D03*
D19*
X130327000Y-112503000D03*
D20*
X162161000Y-114190000D03*
X166311000Y-114190000D03*
X162161000Y-116340000D03*
X166311000Y-116340000D03*
D21*
X142011000Y-89992200D03*
D22*
X144551000Y-89992200D03*
X147091000Y-89992200D03*
X149631000Y-89992200D03*
X152171000Y-89992200D03*
X154711000Y-89992200D03*
D23*
X139413566Y-117162338D03*
X139413566Y-115892338D03*
X139413566Y-114622338D03*
X139413566Y-113352338D03*
X139413566Y-112082338D03*
X139413566Y-110812338D03*
X139413566Y-108272338D03*
X139413566Y-107002338D03*
X139413566Y-105732338D03*
X139413566Y-104462338D03*
X139413566Y-103192338D03*
X139413566Y-101922338D03*
X139413566Y-100652338D03*
D24*
X142698566Y-99162338D03*
X143968566Y-99162338D03*
X152858566Y-99162338D03*
X154128566Y-99162338D03*
D23*
X157413566Y-100652338D03*
X157413566Y-101922338D03*
X157413566Y-103192338D03*
X157413566Y-104462338D03*
X157413566Y-105732338D03*
X157413566Y-107002338D03*
X157413566Y-108272338D03*
X157413566Y-109542338D03*
X157413566Y-110812338D03*
X157413566Y-112082338D03*
X157413566Y-113352338D03*
X157413566Y-114622338D03*
X157413566Y-115892338D03*
X157413566Y-117162338D03*
D25*
X133375000Y-119964000D03*
X163347000Y-89992200D03*
X133375000Y-89992200D03*
X163347000Y-119964000D03*
M02*
