M48
;DRILL file {KiCad 4.0.7} date 06/27/18 00:10:44
;FORMAT={3:3/ absolute / metric / suppress leading zeros}
FMAT,2
METRIC,TZ
T1C0.400
T2C0.650
T3C0.750
T4C1.000
T5C2.200
%
G90
G05
M71
T1
X134831Y-96260
X139559Y-99602
X141144Y-104482
X142225Y-107969
X142604Y-107132
X143433Y-100867
X144206Y-107906
X144391Y-105632
X144411Y-106515
X144467Y-101923
X144478Y-100964
X144478Y-109294
X144485Y-102826
X144596Y-103713
X150401Y-113153
X150790Y-111290
X151546Y-110795
X152084Y-103015
X152084Y-103657
X152331Y-102136
X152980Y-101564
X153158Y-102482
X153388Y-99145
X153531Y-108919
X154584Y-109809
X154792Y-112675
X155179Y-98599
X159290Y-99536
X160576Y-98389
X161095Y-114775
X161391Y-112311
X163167Y-95462
X167051Y-101873
X167691Y-107714
T2
X149861Y-100428
X149861Y-109528
T3
X130327Y-112503
X130327Y-114503
X132613Y-104089
X132613Y-106089
T4
X142011Y-89992
X144551Y-89992
X147091Y-89992
X149631Y-89992
X152171Y-89992
X154711Y-89992
T5
X133375Y-89992
X133375Y-119964
X163347Y-89992
X163347Y-119964
T0
M30
