G04 #@! TF.FileFunction,Legend,Top*
%FSLAX46Y46*%
G04 Gerber Fmt 4.6, Leading zero omitted, Abs format (unit mm)*
G04 Created by KiCad (PCBNEW 4.0.7) date 06/27/18 00:10:41*
%MOMM*%
%LPD*%
G01*
G04 APERTURE LIST*
%ADD10C,0.150000*%
%ADD11C,0.120000*%
%ADD12C,0.254000*%
%ADD13C,0.200000*%
%ADD14C,0.500000*%
%ADD15C,0.010000*%
G04 APERTURE END LIST*
D10*
D11*
X162427000Y-107356000D02*
X161727000Y-107356000D01*
X161727000Y-106156000D02*
X162427000Y-106156000D01*
X167687000Y-97019200D02*
X167687000Y-95919200D01*
X167687000Y-95919200D02*
X165087000Y-95919200D01*
X167687000Y-97019200D02*
X165087000Y-97019200D01*
X161928000Y-111921000D02*
X161928000Y-113021000D01*
X161928000Y-113021000D02*
X164528000Y-113021000D01*
X161928000Y-111921000D02*
X164528000Y-111921000D01*
X132000000Y-100194200D02*
X132000000Y-99094200D01*
X132000000Y-99094200D02*
X129400000Y-99094200D01*
X132000000Y-100194200D02*
X129400000Y-100194200D01*
D12*
X171846000Y-108785000D02*
X171846000Y-101285000D01*
X171846000Y-101285000D02*
X170402000Y-101285000D01*
X171846000Y-108785000D02*
X170424000Y-108785000D01*
X166734000Y-108785000D02*
X167868000Y-108785000D01*
X166851000Y-101285000D02*
X167985000Y-101285000D01*
X164541400Y-106563000D02*
G75*
G03X164541400Y-106563000I-119400J0D01*
G01*
D11*
X166387000Y-99435200D02*
X165387000Y-99435200D01*
X165387000Y-98075200D02*
X166387000Y-98075200D01*
X159365000Y-116527000D02*
X159365000Y-115527000D01*
X160725000Y-115527000D02*
X160725000Y-116527000D01*
X157651000Y-95636200D02*
X157651000Y-94636200D01*
X159011000Y-94636200D02*
X159011000Y-95636200D01*
X159683000Y-95636200D02*
X159683000Y-94636200D01*
X161043000Y-94636200D02*
X161043000Y-95636200D01*
X133674000Y-97874200D02*
X133674000Y-98874200D01*
X132314000Y-98874200D02*
X132314000Y-97874200D01*
X162427000Y-104562000D02*
X161727000Y-104562000D01*
X161727000Y-103362000D02*
X162427000Y-103362000D01*
X169338000Y-113021000D02*
X169338000Y-111921000D01*
X169338000Y-111921000D02*
X166738000Y-111921000D01*
X169338000Y-113021000D02*
X166738000Y-113021000D01*
X126263000Y-104589000D02*
X130613000Y-104589000D01*
X130613000Y-104589000D02*
X130613000Y-105589000D01*
X130613000Y-105589000D02*
X126263000Y-105589000D01*
X132463000Y-103289000D02*
X132463000Y-102939000D01*
X132463000Y-102939000D02*
X134063000Y-102939000D01*
X134063000Y-102939000D02*
X134063000Y-102039000D01*
X134063000Y-102039000D02*
X126263000Y-102039000D01*
X126263000Y-102039000D02*
X126263000Y-108139000D01*
X126263000Y-108139000D02*
X134063000Y-108139000D01*
X134063000Y-108139000D02*
X134063000Y-107239000D01*
X134063000Y-107239000D02*
X132463000Y-107239000D01*
X132463000Y-107239000D02*
X132463000Y-106889000D01*
X132463000Y-102039000D02*
X132463000Y-102939000D01*
X132463000Y-108139000D02*
X132463000Y-107239000D01*
X130113000Y-102789000D02*
X128513000Y-102789000D01*
X128513000Y-102789000D02*
X128513000Y-103789000D01*
X128513000Y-103789000D02*
X130113000Y-103789000D01*
X130113000Y-103789000D02*
X130113000Y-102789000D01*
X130113000Y-107389000D02*
X128513000Y-107389000D01*
X128513000Y-107389000D02*
X128513000Y-106389000D01*
X128513000Y-106389000D02*
X130113000Y-106389000D01*
X130113000Y-106389000D02*
X130113000Y-107389000D01*
X128513000Y-103789000D02*
X126263000Y-103789000D01*
X128513000Y-103289000D02*
X126263000Y-103289000D01*
X132463000Y-103289000D02*
X133663000Y-103289000D01*
X128527000Y-116553000D02*
X133227000Y-116553000D01*
X133227000Y-116553000D02*
X133227000Y-110453000D01*
X133227000Y-110453000D02*
X128527000Y-110453000D01*
X128527000Y-110453000D02*
X128527000Y-116553000D01*
X128527000Y-114003000D02*
X129127000Y-114003000D01*
X129127000Y-114003000D02*
X129127000Y-115953000D01*
X129127000Y-115953000D02*
X132627000Y-115953000D01*
X132627000Y-115953000D02*
X132627000Y-111053000D01*
X132627000Y-111053000D02*
X129127000Y-111053000D01*
X129127000Y-111053000D02*
X129127000Y-113003000D01*
X129127000Y-113003000D02*
X128527000Y-113003000D01*
X129827000Y-116553000D02*
X129827000Y-115953000D01*
X131127000Y-116553000D02*
X131127000Y-115953000D01*
X129827000Y-110453000D02*
X129827000Y-111053000D01*
X131127000Y-110453000D02*
X131127000Y-111053000D01*
X128527000Y-114803000D02*
X128327000Y-114803000D01*
X128327000Y-114803000D02*
X128327000Y-115103000D01*
X128327000Y-115103000D02*
X128527000Y-115103000D01*
X128427000Y-114803000D02*
X128427000Y-115103000D01*
X132627000Y-113603000D02*
X132127000Y-113603000D01*
X132127000Y-113603000D02*
X132127000Y-113403000D01*
X132127000Y-113403000D02*
X132627000Y-113403000D01*
X132627000Y-113503000D02*
X132127000Y-113503000D01*
X128227000Y-115603000D02*
X128227000Y-116853000D01*
X128227000Y-116853000D02*
X129477000Y-116853000D01*
D13*
X162136000Y-113665000D02*
X166336000Y-113665000D01*
X166336000Y-116865000D02*
X162136000Y-116865000D01*
X162136000Y-114765000D02*
X162136000Y-115765000D01*
X166336000Y-114765000D02*
X166336000Y-115765000D01*
D12*
X161383370Y-114176000D02*
G75*
G03X161383370Y-114176000I-53370J0D01*
G01*
D11*
X156041000Y-91322200D02*
X156041000Y-88662200D01*
X143281000Y-91322200D02*
X156041000Y-91322200D01*
X143281000Y-88662200D02*
X156041000Y-88662200D01*
X143281000Y-91322200D02*
X143281000Y-88662200D01*
X142011000Y-91322200D02*
X140681000Y-91322200D01*
X140681000Y-91322200D02*
X140681000Y-89992200D01*
D14*
X158603547Y-118516338D02*
G75*
G03X158603547Y-118516338I-283981J0D01*
G01*
D10*
X139413566Y-118662338D02*
X157413566Y-118662338D01*
X157413566Y-124662338D02*
X157413566Y-99162338D01*
X139413566Y-124662338D02*
X139413566Y-99162338D01*
X139413566Y-99162338D02*
X157413566Y-99162338D01*
X139413566Y-124662338D02*
X157413566Y-124662338D01*
D15*
G36*
X151626714Y-91479914D02*
X153803857Y-91479914D01*
X153803857Y-92568485D01*
X151626714Y-92568485D01*
X151626714Y-91479914D01*
X151626714Y-91479914D01*
G37*
X151626714Y-91479914D02*
X153803857Y-91479914D01*
X153803857Y-92568485D01*
X151626714Y-92568485D01*
X151626714Y-91479914D01*
G36*
X150538143Y-92568485D02*
X151590428Y-92568485D01*
X151590428Y-93657057D01*
X153803857Y-93657057D01*
X153803857Y-95834200D01*
X152715286Y-95834200D01*
X152715286Y-94745628D01*
X151590428Y-94745628D01*
X151590428Y-95834200D01*
X152715286Y-95834200D01*
X153803857Y-95834200D01*
X153803857Y-96922771D01*
X150538143Y-96922771D01*
X150538143Y-92568485D01*
X150538143Y-92568485D01*
G37*
X150538143Y-92568485D02*
X151590428Y-92568485D01*
X151590428Y-93657057D01*
X153803857Y-93657057D01*
X153803857Y-95834200D01*
X152715286Y-95834200D01*
X152715286Y-94745628D01*
X151590428Y-94745628D01*
X151590428Y-95834200D01*
X152715286Y-95834200D01*
X153803857Y-95834200D01*
X153803857Y-96922771D01*
X150538143Y-96922771D01*
X150538143Y-92568485D01*
G36*
X165814428Y-96922771D02*
X163637286Y-96922771D01*
X163637286Y-93657057D01*
X166903000Y-93657057D01*
X166903000Y-95834200D01*
X165814428Y-95834200D01*
X165814428Y-94745628D01*
X164725857Y-94745628D01*
X164725857Y-95834200D01*
X165814428Y-95834200D01*
X166903000Y-95834200D01*
X166903000Y-98011342D01*
X165814428Y-98011342D01*
X165814428Y-96922771D01*
X165814428Y-96922771D01*
G37*
X165814428Y-96922771D02*
X163637286Y-96922771D01*
X163637286Y-93657057D01*
X166903000Y-93657057D01*
X166903000Y-95834200D01*
X165814428Y-95834200D01*
X165814428Y-94745628D01*
X164725857Y-94745628D01*
X164725857Y-95834200D01*
X165814428Y-95834200D01*
X166903000Y-95834200D01*
X166903000Y-98011342D01*
X165814428Y-98011342D01*
X165814428Y-96922771D01*
G36*
X159283000Y-93657057D02*
X162548714Y-93657057D01*
X162548714Y-95834200D01*
X161460143Y-95834200D01*
X161460143Y-94745628D01*
X160335286Y-94745628D01*
X160335286Y-95834200D01*
X161460143Y-95834200D01*
X162548714Y-95834200D01*
X162548714Y-96922771D01*
X159283000Y-96922771D01*
X159283000Y-93657057D01*
X159283000Y-93657057D01*
G37*
X159283000Y-93657057D02*
X162548714Y-93657057D01*
X162548714Y-95834200D01*
X161460143Y-95834200D01*
X161460143Y-94745628D01*
X160335286Y-94745628D01*
X160335286Y-95834200D01*
X161460143Y-95834200D01*
X162548714Y-95834200D01*
X162548714Y-96922771D01*
X159283000Y-96922771D01*
X159283000Y-93657057D01*
G36*
X154892428Y-93657057D02*
X155981000Y-93657057D01*
X155981000Y-95834200D01*
X154892428Y-95834200D01*
X154892428Y-93657057D01*
X154892428Y-93657057D01*
G37*
X154892428Y-93657057D02*
X155981000Y-93657057D01*
X155981000Y-95834200D01*
X154892428Y-95834200D01*
X154892428Y-93657057D01*
G36*
X155981000Y-95834200D02*
X157105857Y-95834200D01*
X157105857Y-93657057D01*
X158158143Y-93657057D01*
X158158143Y-96922771D01*
X155981000Y-96922771D01*
X155981000Y-95834200D01*
X155981000Y-95834200D01*
G37*
X155981000Y-95834200D02*
X157105857Y-95834200D01*
X157105857Y-93657057D01*
X158158143Y-93657057D01*
X158158143Y-96922771D01*
X155981000Y-96922771D01*
X155981000Y-95834200D01*
G36*
X146147571Y-93657057D02*
X149413285Y-93657057D01*
X149413285Y-95834200D01*
X148361000Y-95834200D01*
X148361000Y-94745628D01*
X147236143Y-94745628D01*
X147236143Y-95834200D01*
X148361000Y-95834200D01*
X149413285Y-95834200D01*
X149413285Y-96922771D01*
X146147571Y-96922771D01*
X146147571Y-93657057D01*
X146147571Y-93657057D01*
G37*
X146147571Y-93657057D02*
X149413285Y-93657057D01*
X149413285Y-95834200D01*
X148361000Y-95834200D01*
X148361000Y-94745628D01*
X147236143Y-94745628D01*
X147236143Y-95834200D01*
X148361000Y-95834200D01*
X149413285Y-95834200D01*
X149413285Y-96922771D01*
X146147571Y-96922771D01*
X146147571Y-93657057D01*
G36*
X141793286Y-95834200D02*
X143970428Y-95834200D01*
X143970428Y-93657057D01*
X145059000Y-93657057D01*
X145059000Y-96922771D01*
X141793286Y-96922771D01*
X141793286Y-95834200D01*
X141793286Y-95834200D01*
G37*
X141793286Y-95834200D02*
X143970428Y-95834200D01*
X143970428Y-93657057D01*
X145059000Y-93657057D01*
X145059000Y-96922771D01*
X141793286Y-96922771D01*
X141793286Y-95834200D01*
G36*
X139616143Y-93657057D02*
X140668428Y-93657057D01*
X140668428Y-96922771D01*
X139616143Y-96922771D01*
X139616143Y-93657057D01*
X139616143Y-93657057D01*
G37*
X139616143Y-93657057D02*
X140668428Y-93657057D01*
X140668428Y-96922771D01*
X139616143Y-96922771D01*
X139616143Y-93657057D01*
G36*
X134137000Y-93657057D02*
X135225571Y-93657057D01*
X135225571Y-94745628D01*
X134137000Y-94745628D01*
X134137000Y-93657057D01*
X134137000Y-93657057D01*
G37*
X134137000Y-93657057D02*
X135225571Y-93657057D01*
X135225571Y-94745628D01*
X134137000Y-94745628D01*
X134137000Y-93657057D01*
G36*
X135225571Y-94745628D02*
X136314143Y-94745628D01*
X136314143Y-93657057D01*
X138491286Y-93657057D01*
X138491286Y-95834200D01*
X137402714Y-95834200D01*
X137402714Y-94745628D01*
X136314143Y-94745628D01*
X136314143Y-95834200D01*
X137402714Y-95834200D01*
X137402714Y-96922771D01*
X135225571Y-96922771D01*
X135225571Y-94745628D01*
X135225571Y-94745628D01*
G37*
X135225571Y-94745628D02*
X136314143Y-94745628D01*
X136314143Y-93657057D01*
X138491286Y-93657057D01*
X138491286Y-95834200D01*
X137402714Y-95834200D01*
X137402714Y-94745628D01*
X136314143Y-94745628D01*
X136314143Y-95834200D01*
X137402714Y-95834200D01*
X137402714Y-96922771D01*
X135225571Y-96922771D01*
X135225571Y-94745628D01*
G36*
X130871285Y-95834200D02*
X131959857Y-95834200D01*
X131959857Y-93657057D01*
X133012143Y-93657057D01*
X133012143Y-96922771D01*
X130871285Y-96922771D01*
X130871285Y-95834200D01*
X130871285Y-95834200D01*
G37*
X130871285Y-95834200D02*
X131959857Y-95834200D01*
X131959857Y-93657057D01*
X133012143Y-93657057D01*
X133012143Y-96922771D01*
X130871285Y-96922771D01*
X130871285Y-95834200D01*
G36*
X129782714Y-93657057D02*
X130835000Y-93657057D01*
X130835000Y-95834200D01*
X129782714Y-95834200D01*
X129782714Y-93657057D01*
X129782714Y-93657057D01*
G37*
X129782714Y-93657057D02*
X130835000Y-93657057D01*
X130835000Y-95834200D01*
X129782714Y-95834200D01*
X129782714Y-93657057D01*
G36*
X139616143Y-98047628D02*
X140668428Y-98047628D01*
X140668428Y-99099914D01*
X139616143Y-99099914D01*
X139616143Y-98047628D01*
X139616143Y-98047628D01*
G37*
X139616143Y-98047628D02*
X140668428Y-98047628D01*
X140668428Y-99099914D01*
X139616143Y-99099914D01*
X139616143Y-98047628D01*
D10*
X161910334Y-108363143D02*
X161862715Y-108410762D01*
X161719858Y-108458381D01*
X161624620Y-108458381D01*
X161481762Y-108410762D01*
X161386524Y-108315524D01*
X161338905Y-108220286D01*
X161291286Y-108029810D01*
X161291286Y-107886952D01*
X161338905Y-107696476D01*
X161386524Y-107601238D01*
X161481762Y-107506000D01*
X161624620Y-107458381D01*
X161719858Y-107458381D01*
X161862715Y-107506000D01*
X161910334Y-107553619D01*
X162815096Y-107458381D02*
X162338905Y-107458381D01*
X162291286Y-107934571D01*
X162338905Y-107886952D01*
X162434143Y-107839333D01*
X162672239Y-107839333D01*
X162767477Y-107886952D01*
X162815096Y-107934571D01*
X162862715Y-108029810D01*
X162862715Y-108267905D01*
X162815096Y-108363143D01*
X162767477Y-108410762D01*
X162672239Y-108458381D01*
X162434143Y-108458381D01*
X162338905Y-108410762D01*
X162291286Y-108363143D01*
X168069905Y-96921581D02*
X168069905Y-95921581D01*
X168308000Y-95921581D01*
X168450858Y-95969200D01*
X168546096Y-96064438D01*
X168593715Y-96159676D01*
X168641334Y-96350152D01*
X168641334Y-96493010D01*
X168593715Y-96683486D01*
X168546096Y-96778724D01*
X168450858Y-96873962D01*
X168308000Y-96921581D01*
X168069905Y-96921581D01*
X169593715Y-96921581D02*
X169022286Y-96921581D01*
X169308000Y-96921581D02*
X169308000Y-95921581D01*
X169212762Y-96064438D01*
X169117524Y-96159676D01*
X169022286Y-96207295D01*
X162989905Y-111473381D02*
X162989905Y-110473381D01*
X163228000Y-110473381D01*
X163370858Y-110521000D01*
X163466096Y-110616238D01*
X163513715Y-110711476D01*
X163561334Y-110901952D01*
X163561334Y-111044810D01*
X163513715Y-111235286D01*
X163466096Y-111330524D01*
X163370858Y-111425762D01*
X163228000Y-111473381D01*
X162989905Y-111473381D01*
X163942286Y-110568619D02*
X163989905Y-110521000D01*
X164085143Y-110473381D01*
X164323239Y-110473381D01*
X164418477Y-110521000D01*
X164466096Y-110568619D01*
X164513715Y-110663857D01*
X164513715Y-110759095D01*
X164466096Y-110901952D01*
X163894667Y-111473381D01*
X164513715Y-111473381D01*
X126540905Y-100096581D02*
X126540905Y-99096581D01*
X126779000Y-99096581D01*
X126921858Y-99144200D01*
X127017096Y-99239438D01*
X127064715Y-99334676D01*
X127112334Y-99525152D01*
X127112334Y-99668010D01*
X127064715Y-99858486D01*
X127017096Y-99953724D01*
X126921858Y-100048962D01*
X126779000Y-100096581D01*
X126540905Y-100096581D01*
X128017096Y-99096581D02*
X127540905Y-99096581D01*
X127493286Y-99572771D01*
X127540905Y-99525152D01*
X127636143Y-99477533D01*
X127874239Y-99477533D01*
X127969477Y-99525152D01*
X128017096Y-99572771D01*
X128064715Y-99668010D01*
X128064715Y-99906105D01*
X128017096Y-100001343D01*
X127969477Y-100048962D01*
X127874239Y-100096581D01*
X127636143Y-100096581D01*
X127540905Y-100048962D01*
X127493286Y-100001343D01*
D12*
X165919524Y-105785333D02*
X166826667Y-105785333D01*
X167008095Y-105845809D01*
X167129048Y-105966761D01*
X167189524Y-106148190D01*
X167189524Y-106269142D01*
X167189524Y-104515333D02*
X167189524Y-105241047D01*
X167189524Y-104878190D02*
X165919524Y-104878190D01*
X166100952Y-104999142D01*
X166221905Y-105120095D01*
X166282381Y-105241047D01*
D10*
X168768334Y-99207581D02*
X168435000Y-98731390D01*
X168196905Y-99207581D02*
X168196905Y-98207581D01*
X168577858Y-98207581D01*
X168673096Y-98255200D01*
X168720715Y-98302819D01*
X168768334Y-98398057D01*
X168768334Y-98540914D01*
X168720715Y-98636152D01*
X168673096Y-98683771D01*
X168577858Y-98731390D01*
X168196905Y-98731390D01*
X169720715Y-99207581D02*
X169149286Y-99207581D01*
X169435000Y-99207581D02*
X169435000Y-98207581D01*
X169339762Y-98350438D01*
X169244524Y-98445676D01*
X169149286Y-98493295D01*
X160497381Y-119114666D02*
X160021190Y-119448000D01*
X160497381Y-119686095D02*
X159497381Y-119686095D01*
X159497381Y-119305142D01*
X159545000Y-119209904D01*
X159592619Y-119162285D01*
X159687857Y-119114666D01*
X159830714Y-119114666D01*
X159925952Y-119162285D01*
X159973571Y-119209904D01*
X160021190Y-119305142D01*
X160021190Y-119686095D01*
X159497381Y-118209904D02*
X159497381Y-118686095D01*
X159973571Y-118733714D01*
X159925952Y-118686095D01*
X159878333Y-118590857D01*
X159878333Y-118352761D01*
X159925952Y-118257523D01*
X159973571Y-118209904D01*
X160068810Y-118162285D01*
X160306905Y-118162285D01*
X160402143Y-118209904D01*
X160449762Y-118257523D01*
X160497381Y-118352761D01*
X160497381Y-118590857D01*
X160449762Y-118686095D01*
X160402143Y-118733714D01*
X158719381Y-92444866D02*
X158243190Y-92778200D01*
X158719381Y-93016295D02*
X157719381Y-93016295D01*
X157719381Y-92635342D01*
X157767000Y-92540104D01*
X157814619Y-92492485D01*
X157909857Y-92444866D01*
X158052714Y-92444866D01*
X158147952Y-92492485D01*
X158195571Y-92540104D01*
X158243190Y-92635342D01*
X158243190Y-93016295D01*
X157719381Y-91587723D02*
X157719381Y-91778200D01*
X157767000Y-91873438D01*
X157814619Y-91921057D01*
X157957476Y-92016295D01*
X158147952Y-92063914D01*
X158528905Y-92063914D01*
X158624143Y-92016295D01*
X158671762Y-91968676D01*
X158719381Y-91873438D01*
X158719381Y-91682961D01*
X158671762Y-91587723D01*
X158624143Y-91540104D01*
X158528905Y-91492485D01*
X158290810Y-91492485D01*
X158195571Y-91540104D01*
X158147952Y-91587723D01*
X158100333Y-91682961D01*
X158100333Y-91873438D01*
X158147952Y-91968676D01*
X158195571Y-92016295D01*
X158290810Y-92063914D01*
X160751381Y-92444866D02*
X160275190Y-92778200D01*
X160751381Y-93016295D02*
X159751381Y-93016295D01*
X159751381Y-92635342D01*
X159799000Y-92540104D01*
X159846619Y-92492485D01*
X159941857Y-92444866D01*
X160084714Y-92444866D01*
X160179952Y-92492485D01*
X160227571Y-92540104D01*
X160275190Y-92635342D01*
X160275190Y-93016295D01*
X159751381Y-92111533D02*
X159751381Y-91444866D01*
X160751381Y-91873438D01*
X134970381Y-99017057D02*
X134494190Y-99350391D01*
X134970381Y-99588486D02*
X133970381Y-99588486D01*
X133970381Y-99207533D01*
X134018000Y-99112295D01*
X134065619Y-99064676D01*
X134160857Y-99017057D01*
X134303714Y-99017057D01*
X134398952Y-99064676D01*
X134446571Y-99112295D01*
X134494190Y-99207533D01*
X134494190Y-99588486D01*
X134970381Y-98064676D02*
X134970381Y-98636105D01*
X134970381Y-98350391D02*
X133970381Y-98350391D01*
X134113238Y-98445629D01*
X134208476Y-98540867D01*
X134256095Y-98636105D01*
X134970381Y-97112295D02*
X134970381Y-97683724D01*
X134970381Y-97398010D02*
X133970381Y-97398010D01*
X134113238Y-97493248D01*
X134208476Y-97588486D01*
X134256095Y-97683724D01*
X161910334Y-105569143D02*
X161862715Y-105616762D01*
X161719858Y-105664381D01*
X161624620Y-105664381D01*
X161481762Y-105616762D01*
X161386524Y-105521524D01*
X161338905Y-105426286D01*
X161291286Y-105235810D01*
X161291286Y-105092952D01*
X161338905Y-104902476D01*
X161386524Y-104807238D01*
X161481762Y-104712000D01*
X161624620Y-104664381D01*
X161719858Y-104664381D01*
X161862715Y-104712000D01*
X161910334Y-104759619D01*
X162767477Y-104997714D02*
X162767477Y-105664381D01*
X162529381Y-104616762D02*
X162291286Y-105331048D01*
X162910334Y-105331048D01*
X166799905Y-114373381D02*
X166799905Y-113373381D01*
X167038000Y-113373381D01*
X167180858Y-113421000D01*
X167276096Y-113516238D01*
X167323715Y-113611476D01*
X167371334Y-113801952D01*
X167371334Y-113944810D01*
X167323715Y-114135286D01*
X167276096Y-114230524D01*
X167180858Y-114325762D01*
X167038000Y-114373381D01*
X166799905Y-114373381D01*
X167704667Y-113373381D02*
X168323715Y-113373381D01*
X167990381Y-113754333D01*
X168133239Y-113754333D01*
X168228477Y-113801952D01*
X168276096Y-113849571D01*
X168323715Y-113944810D01*
X168323715Y-114182905D01*
X168276096Y-114278143D01*
X168228477Y-114325762D01*
X168133239Y-114373381D01*
X167847524Y-114373381D01*
X167752286Y-114325762D01*
X167704667Y-114278143D01*
X134515381Y-105922333D02*
X135229667Y-105922333D01*
X135372524Y-105969953D01*
X135467762Y-106065191D01*
X135515381Y-106208048D01*
X135515381Y-106303286D01*
X134848714Y-105017571D02*
X135515381Y-105017571D01*
X134467762Y-105255667D02*
X135182048Y-105493762D01*
X135182048Y-104874714D01*
X126979381Y-113336333D02*
X127693667Y-113336333D01*
X127836524Y-113383953D01*
X127931762Y-113479191D01*
X127979381Y-113622048D01*
X127979381Y-113717286D01*
X126979381Y-112383952D02*
X126979381Y-112860143D01*
X127455571Y-112907762D01*
X127407952Y-112860143D01*
X127360333Y-112764905D01*
X127360333Y-112526809D01*
X127407952Y-112431571D01*
X127455571Y-112383952D01*
X127550810Y-112336333D01*
X127788905Y-112336333D01*
X127884143Y-112383952D01*
X127931762Y-112431571D01*
X127979381Y-112526809D01*
X127979381Y-112764905D01*
X127931762Y-112860143D01*
X127884143Y-112907762D01*
D12*
X162883208Y-115676147D02*
X163064636Y-115736623D01*
X163367017Y-115736623D01*
X163487970Y-115676147D01*
X163548446Y-115615670D01*
X163608922Y-115494718D01*
X163608922Y-115373766D01*
X163548446Y-115252813D01*
X163487970Y-115192337D01*
X163367017Y-115131861D01*
X163125113Y-115071385D01*
X163004160Y-115010909D01*
X162943684Y-114950432D01*
X162883208Y-114829480D01*
X162883208Y-114708528D01*
X162943684Y-114587575D01*
X163004160Y-114527099D01*
X163125113Y-114466623D01*
X163427493Y-114466623D01*
X163608922Y-114527099D01*
X164032256Y-114466623D02*
X164334637Y-115736623D01*
X164576541Y-114829480D01*
X164818446Y-115736623D01*
X165120827Y-114466623D01*
D10*
X139609571Y-91539819D02*
X139609571Y-91206485D01*
X140133381Y-91063628D02*
X140133381Y-91539819D01*
X139133381Y-91539819D01*
X139133381Y-91063628D01*
X139133381Y-90730295D02*
X140133381Y-90063628D01*
X139133381Y-90063628D02*
X140133381Y-90730295D01*
X139133381Y-89825533D02*
X139133381Y-89254104D01*
X140133381Y-89539819D02*
X139133381Y-89539819D01*
X140133381Y-88396961D02*
X140133381Y-88968390D01*
X140133381Y-88682676D02*
X139133381Y-88682676D01*
X139276238Y-88777914D01*
X139371476Y-88873152D01*
X139419095Y-88968390D01*
X144511381Y-103072905D02*
X145320905Y-103072905D01*
X145416143Y-103025286D01*
X145463762Y-102977667D01*
X145511381Y-102882429D01*
X145511381Y-102691952D01*
X145463762Y-102596714D01*
X145416143Y-102549095D01*
X145320905Y-102501476D01*
X144511381Y-102501476D01*
X145511381Y-101501476D02*
X145511381Y-102072905D01*
X145511381Y-101787191D02*
X144511381Y-101787191D01*
X144654238Y-101882429D01*
X144749476Y-101977667D01*
X144797095Y-102072905D01*
X143489571Y-108083095D02*
X143489571Y-107749761D01*
X144013381Y-107606904D02*
X144013381Y-108083095D01*
X143013381Y-108083095D01*
X143013381Y-107606904D01*
X143965762Y-107225952D02*
X144013381Y-107083095D01*
X144013381Y-106844999D01*
X143965762Y-106749761D01*
X143918143Y-106702142D01*
X143822905Y-106654523D01*
X143727667Y-106654523D01*
X143632429Y-106702142D01*
X143584810Y-106749761D01*
X143537190Y-106844999D01*
X143489571Y-107035476D01*
X143441952Y-107130714D01*
X143394333Y-107178333D01*
X143299095Y-107225952D01*
X143203857Y-107225952D01*
X143108619Y-107178333D01*
X143061000Y-107130714D01*
X143013381Y-107035476D01*
X143013381Y-106797380D01*
X143061000Y-106654523D01*
X144013381Y-106225952D02*
X143013381Y-106225952D01*
X143013381Y-105844999D01*
X143061000Y-105749761D01*
X143108619Y-105702142D01*
X143203857Y-105654523D01*
X143346714Y-105654523D01*
X143441952Y-105702142D01*
X143489571Y-105749761D01*
X143537190Y-105844999D01*
X143537190Y-106225952D01*
X143632429Y-105225952D02*
X143632429Y-104464047D01*
X143013381Y-104083095D02*
X143013381Y-103464047D01*
X143394333Y-103797381D01*
X143394333Y-103654523D01*
X143441952Y-103559285D01*
X143489571Y-103511666D01*
X143584810Y-103464047D01*
X143822905Y-103464047D01*
X143918143Y-103511666D01*
X143965762Y-103559285D01*
X144013381Y-103654523D01*
X144013381Y-103940238D01*
X143965762Y-104035476D01*
X143918143Y-104083095D01*
X143108619Y-103083095D02*
X143061000Y-103035476D01*
X143013381Y-102940238D01*
X143013381Y-102702142D01*
X143061000Y-102606904D01*
X143108619Y-102559285D01*
X143203857Y-102511666D01*
X143299095Y-102511666D01*
X143441952Y-102559285D01*
X144013381Y-103130714D01*
X144013381Y-102511666D01*
X143965762Y-102130714D02*
X144013381Y-101987857D01*
X144013381Y-101749761D01*
X143965762Y-101654523D01*
X143918143Y-101606904D01*
X143822905Y-101559285D01*
X143727667Y-101559285D01*
X143632429Y-101606904D01*
X143584810Y-101654523D01*
X143537190Y-101749761D01*
X143489571Y-101940238D01*
X143441952Y-102035476D01*
X143394333Y-102083095D01*
X143299095Y-102130714D01*
X143203857Y-102130714D01*
X143108619Y-102083095D01*
X143061000Y-102035476D01*
X143013381Y-101940238D01*
X143013381Y-101702142D01*
X143061000Y-101559285D01*
M02*
