G04 #@! TF.FileFunction,Legend,Bot*
%FSLAX46Y46*%
G04 Gerber Fmt 4.6, Leading zero omitted, Abs format (unit mm)*
G04 Created by KiCad (PCBNEW 4.0.7) date 06/27/18 00:10:41*
%MOMM*%
%LPD*%
G01*
G04 APERTURE LIST*
%ADD10C,0.150000*%
%ADD11C,0.120000*%
%ADD12C,0.200000*%
%ADD13C,0.100000*%
%ADD14C,0.254000*%
G04 APERTURE END LIST*
D10*
D11*
X162620000Y-97262200D02*
X162620000Y-97962200D01*
X163820000Y-97962200D02*
X163820000Y-97262200D01*
X162366000Y-114915000D02*
X162366000Y-115615000D01*
X163566000Y-115615000D02*
X163566000Y-114915000D01*
X153265000Y-115469000D02*
X153265000Y-116169000D01*
X154465000Y-116169000D02*
X154465000Y-115469000D01*
X154683000Y-115486000D02*
X154683000Y-116186000D01*
X155883000Y-116186000D02*
X155883000Y-115486000D01*
X146631000Y-83286200D02*
X150091000Y-83286200D01*
X146631000Y-87046200D02*
X150091000Y-87046200D01*
D12*
X149961000Y-120561000D02*
X146761000Y-120561000D01*
X146761000Y-120561000D02*
X146761000Y-125463000D01*
X146761000Y-125463000D02*
X149961000Y-125463000D01*
X149961000Y-125463000D02*
X149961000Y-120561000D01*
X151836000Y-120432000D02*
X150311000Y-120432000D01*
X137747000Y-96141200D02*
X138147000Y-96141200D01*
X138147000Y-96141200D02*
X138147000Y-93241200D01*
X138147000Y-93241200D02*
X137747000Y-93241200D01*
X137747000Y-93241200D02*
X137747000Y-96141200D01*
X135997000Y-96191200D02*
X137397000Y-96191200D01*
X139709000Y-101162000D02*
X139709000Y-100412000D01*
X139709000Y-100412000D02*
X137709000Y-100412000D01*
X137709000Y-100412000D02*
X137709000Y-101162000D01*
X137709000Y-101162000D02*
X139709000Y-101162000D01*
X139859000Y-102262000D02*
X139859000Y-101512000D01*
D11*
X164863000Y-109759000D02*
X163863000Y-109759000D01*
X163863000Y-111119000D02*
X164863000Y-111119000D01*
X159402000Y-111791000D02*
X158402000Y-111791000D01*
X158402000Y-113151000D02*
X159402000Y-113151000D01*
X167837000Y-105732000D02*
X167837000Y-104732000D01*
X166477000Y-104732000D02*
X166477000Y-105732000D01*
X138627000Y-105224000D02*
X138627000Y-104224000D01*
X137267000Y-104224000D02*
X137267000Y-105224000D01*
X136849000Y-116400000D02*
X136849000Y-115400000D01*
X135489000Y-115400000D02*
X135489000Y-116400000D01*
X138918000Y-104224000D02*
X138918000Y-105224000D01*
X140278000Y-105224000D02*
X140278000Y-104224000D01*
X137701000Y-98038200D02*
X138701000Y-98038200D01*
X138701000Y-96678200D02*
X137701000Y-96678200D01*
X160268000Y-109839000D02*
X159568000Y-109839000D01*
X159568000Y-111039000D02*
X160268000Y-111039000D01*
X152391000Y-117969000D02*
X152391000Y-123469000D01*
X154491000Y-117969000D02*
X154491000Y-123469000D01*
X152391000Y-117969000D02*
X154491000Y-117969000D01*
X155058000Y-117969000D02*
X155058000Y-123469000D01*
X157158000Y-117969000D02*
X157158000Y-123469000D01*
X155058000Y-117969000D02*
X157158000Y-117969000D01*
X142231000Y-117969000D02*
X142231000Y-123469000D01*
X144331000Y-117969000D02*
X144331000Y-123469000D01*
X142231000Y-117969000D02*
X144331000Y-117969000D01*
X139564000Y-117969000D02*
X139564000Y-123469000D01*
X141664000Y-117969000D02*
X141664000Y-123469000D01*
X139564000Y-117969000D02*
X141664000Y-117969000D01*
X140268000Y-94341200D02*
X140268000Y-95041200D01*
X141468000Y-95041200D02*
X141468000Y-94341200D01*
X134360000Y-93202200D02*
X133660000Y-93202200D01*
X133660000Y-94402200D02*
X134360000Y-94402200D01*
D12*
X132595000Y-113652000D02*
X135945000Y-113652000D01*
X133345000Y-112052000D02*
X135945000Y-112052000D01*
D13*
X149561000Y-100128000D02*
X150261000Y-100128000D01*
X150261000Y-100128000D02*
X150261000Y-101078000D01*
X149561000Y-109828000D02*
X150261000Y-109828000D01*
X150261000Y-109828000D02*
X150261000Y-108878000D01*
D12*
X137709000Y-108286000D02*
X137709000Y-109036000D01*
X137709000Y-109036000D02*
X139709000Y-109036000D01*
X139709000Y-109036000D02*
X139709000Y-108286000D01*
X139709000Y-108286000D02*
X137709000Y-108286000D01*
X137559000Y-107186000D02*
X137559000Y-107936000D01*
X135841000Y-109446000D02*
X135841000Y-109146000D01*
X135841000Y-109146000D02*
X132941000Y-109146000D01*
X132941000Y-109146000D02*
X132941000Y-109446000D01*
X132941000Y-109446000D02*
X135841000Y-109446000D01*
X135926000Y-110896000D02*
X135926000Y-109796000D01*
X157048000Y-108921000D02*
X160248000Y-108921000D01*
X160248000Y-108921000D02*
X160248000Y-100273000D01*
X160248000Y-100273000D02*
X157048000Y-100273000D01*
X157048000Y-100273000D02*
X157048000Y-108921000D01*
X155173000Y-108022000D02*
X156699000Y-108022000D01*
D10*
X162327143Y-97445534D02*
X162374762Y-97397915D01*
X162422381Y-97255058D01*
X162422381Y-97159820D01*
X162374762Y-97016962D01*
X162279524Y-96921724D01*
X162184286Y-96874105D01*
X161993810Y-96826486D01*
X161850952Y-96826486D01*
X161660476Y-96874105D01*
X161565238Y-96921724D01*
X161470000Y-97016962D01*
X161422381Y-97159820D01*
X161422381Y-97255058D01*
X161470000Y-97397915D01*
X161517619Y-97445534D01*
X162422381Y-98397915D02*
X162422381Y-97826486D01*
X162422381Y-98112200D02*
X161422381Y-98112200D01*
X161565238Y-98016962D01*
X161660476Y-97921724D01*
X161708095Y-97826486D01*
X163132666Y-118035143D02*
X163180285Y-118082762D01*
X163323142Y-118130381D01*
X163418380Y-118130381D01*
X163561238Y-118082762D01*
X163656476Y-117987524D01*
X163704095Y-117892286D01*
X163751714Y-117701810D01*
X163751714Y-117558952D01*
X163704095Y-117368476D01*
X163656476Y-117273238D01*
X163561238Y-117178000D01*
X163418380Y-117130381D01*
X163323142Y-117130381D01*
X163180285Y-117178000D01*
X163132666Y-117225619D01*
X162799333Y-117130381D02*
X162180285Y-117130381D01*
X162513619Y-117511333D01*
X162370761Y-117511333D01*
X162275523Y-117558952D01*
X162227904Y-117606571D01*
X162180285Y-117701810D01*
X162180285Y-117939905D01*
X162227904Y-118035143D01*
X162275523Y-118082762D01*
X162370761Y-118130381D01*
X162656476Y-118130381D01*
X162751714Y-118082762D01*
X162799333Y-118035143D01*
X154179143Y-112812334D02*
X154226762Y-112764715D01*
X154274381Y-112621858D01*
X154274381Y-112526620D01*
X154226762Y-112383762D01*
X154131524Y-112288524D01*
X154036286Y-112240905D01*
X153845810Y-112193286D01*
X153702952Y-112193286D01*
X153512476Y-112240905D01*
X153417238Y-112288524D01*
X153322000Y-112383762D01*
X153274381Y-112526620D01*
X153274381Y-112621858D01*
X153322000Y-112764715D01*
X153369619Y-112812334D01*
X153274381Y-113669477D02*
X153274381Y-113479000D01*
X153322000Y-113383762D01*
X153369619Y-113336143D01*
X153512476Y-113240905D01*
X153702952Y-113193286D01*
X154083905Y-113193286D01*
X154179143Y-113240905D01*
X154226762Y-113288524D01*
X154274381Y-113383762D01*
X154274381Y-113574239D01*
X154226762Y-113669477D01*
X154179143Y-113717096D01*
X154083905Y-113764715D01*
X153845810Y-113764715D01*
X153750571Y-113717096D01*
X153702952Y-113669477D01*
X153655333Y-113574239D01*
X153655333Y-113383762D01*
X153702952Y-113288524D01*
X153750571Y-113240905D01*
X153845810Y-113193286D01*
X155576143Y-112812334D02*
X155623762Y-112764715D01*
X155671381Y-112621858D01*
X155671381Y-112526620D01*
X155623762Y-112383762D01*
X155528524Y-112288524D01*
X155433286Y-112240905D01*
X155242810Y-112193286D01*
X155099952Y-112193286D01*
X154909476Y-112240905D01*
X154814238Y-112288524D01*
X154719000Y-112383762D01*
X154671381Y-112526620D01*
X154671381Y-112621858D01*
X154719000Y-112764715D01*
X154766619Y-112812334D01*
X154671381Y-113145667D02*
X154671381Y-113812334D01*
X155671381Y-113383762D01*
X148821333Y-85094771D02*
X149154667Y-85094771D01*
X149154667Y-85618581D02*
X149154667Y-84618581D01*
X148678476Y-84618581D01*
X147773714Y-85618581D02*
X148345143Y-85618581D01*
X148059429Y-85618581D02*
X148059429Y-84618581D01*
X148154667Y-84761438D01*
X148249905Y-84856676D01*
X148345143Y-84904295D01*
D14*
X149600762Y-123586524D02*
X149600762Y-122316524D01*
X148270286Y-123465571D02*
X148330762Y-123526048D01*
X148512191Y-123586524D01*
X148633143Y-123586524D01*
X148814571Y-123526048D01*
X148935524Y-123405095D01*
X148996000Y-123284143D01*
X149056476Y-123042238D01*
X149056476Y-122860810D01*
X148996000Y-122618905D01*
X148935524Y-122497952D01*
X148814571Y-122377000D01*
X148633143Y-122316524D01*
X148512191Y-122316524D01*
X148330762Y-122377000D01*
X148270286Y-122437476D01*
X147786476Y-122437476D02*
X147726000Y-122377000D01*
X147605048Y-122316524D01*
X147302667Y-122316524D01*
X147181714Y-122377000D01*
X147121238Y-122437476D01*
X147060762Y-122558429D01*
X147060762Y-122679381D01*
X147121238Y-122860810D01*
X147846952Y-123586524D01*
X147060762Y-123586524D01*
D10*
X139313762Y-92725724D02*
X139313762Y-91455724D01*
X137983286Y-92604771D02*
X138043762Y-92665248D01*
X138225191Y-92725724D01*
X138346143Y-92725724D01*
X138527571Y-92665248D01*
X138648524Y-92544295D01*
X138709000Y-92423343D01*
X138769476Y-92181438D01*
X138769476Y-92000010D01*
X138709000Y-91758105D01*
X138648524Y-91637152D01*
X138527571Y-91516200D01*
X138346143Y-91455724D01*
X138225191Y-91455724D01*
X138043762Y-91516200D01*
X137983286Y-91576676D01*
X137559952Y-91455724D02*
X136773762Y-91455724D01*
X137197095Y-91939533D01*
X137015667Y-91939533D01*
X136894714Y-92000010D01*
X136834238Y-92060486D01*
X136773762Y-92181438D01*
X136773762Y-92483819D01*
X136834238Y-92604771D01*
X136894714Y-92665248D01*
X137015667Y-92725724D01*
X137378524Y-92725724D01*
X137499476Y-92665248D01*
X137559952Y-92604771D01*
X137118476Y-100666048D02*
X137058000Y-100545095D01*
X136937048Y-100424143D01*
X136755619Y-100242714D01*
X136695143Y-100121762D01*
X136695143Y-100000810D01*
X136997524Y-100061286D02*
X136937048Y-99940333D01*
X136816095Y-99819381D01*
X136574190Y-99758905D01*
X136150857Y-99758905D01*
X135908952Y-99819381D01*
X135788000Y-99940333D01*
X135727524Y-100061286D01*
X135727524Y-100303190D01*
X135788000Y-100424143D01*
X135908952Y-100545095D01*
X136150857Y-100605571D01*
X136574190Y-100605571D01*
X136816095Y-100545095D01*
X136937048Y-100424143D01*
X136997524Y-100303190D01*
X136997524Y-100061286D01*
X135727524Y-101028905D02*
X135727524Y-101815095D01*
X136211333Y-101391762D01*
X136211333Y-101573190D01*
X136271810Y-101694143D01*
X136332286Y-101754619D01*
X136453238Y-101815095D01*
X136755619Y-101815095D01*
X136876571Y-101754619D01*
X136937048Y-101694143D01*
X136997524Y-101573190D01*
X136997524Y-101210333D01*
X136937048Y-101089381D01*
X136876571Y-101028905D01*
X167577666Y-110891381D02*
X167911000Y-110415190D01*
X168149095Y-110891381D02*
X168149095Y-109891381D01*
X167768142Y-109891381D01*
X167672904Y-109939000D01*
X167625285Y-109986619D01*
X167577666Y-110081857D01*
X167577666Y-110224714D01*
X167625285Y-110319952D01*
X167672904Y-110367571D01*
X167768142Y-110415190D01*
X168149095Y-110415190D01*
X167196714Y-109986619D02*
X167149095Y-109939000D01*
X167053857Y-109891381D01*
X166815761Y-109891381D01*
X166720523Y-109939000D01*
X166672904Y-109986619D01*
X166625285Y-110081857D01*
X166625285Y-110177095D01*
X166672904Y-110319952D01*
X167244333Y-110891381D01*
X166625285Y-110891381D01*
X162116666Y-112923381D02*
X162450000Y-112447190D01*
X162688095Y-112923381D02*
X162688095Y-111923381D01*
X162307142Y-111923381D01*
X162211904Y-111971000D01*
X162164285Y-112018619D01*
X162116666Y-112113857D01*
X162116666Y-112256714D01*
X162164285Y-112351952D01*
X162211904Y-112399571D01*
X162307142Y-112447190D01*
X162688095Y-112447190D01*
X161783333Y-111923381D02*
X161164285Y-111923381D01*
X161497619Y-112304333D01*
X161354761Y-112304333D01*
X161259523Y-112351952D01*
X161211904Y-112399571D01*
X161164285Y-112494810D01*
X161164285Y-112732905D01*
X161211904Y-112828143D01*
X161259523Y-112875762D01*
X161354761Y-112923381D01*
X161640476Y-112923381D01*
X161735714Y-112875762D01*
X161783333Y-112828143D01*
X167609381Y-102017334D02*
X167133190Y-101684000D01*
X167609381Y-101445905D02*
X166609381Y-101445905D01*
X166609381Y-101826858D01*
X166657000Y-101922096D01*
X166704619Y-101969715D01*
X166799857Y-102017334D01*
X166942714Y-102017334D01*
X167037952Y-101969715D01*
X167085571Y-101922096D01*
X167133190Y-101826858D01*
X167133190Y-101445905D01*
X166942714Y-102874477D02*
X167609381Y-102874477D01*
X166561762Y-102636381D02*
X167276048Y-102398286D01*
X167276048Y-103017334D01*
X136949381Y-104557334D02*
X136473190Y-104224000D01*
X136949381Y-103985905D02*
X135949381Y-103985905D01*
X135949381Y-104366858D01*
X135997000Y-104462096D01*
X136044619Y-104509715D01*
X136139857Y-104557334D01*
X136282714Y-104557334D01*
X136377952Y-104509715D01*
X136425571Y-104462096D01*
X136473190Y-104366858D01*
X136473190Y-103985905D01*
X136377952Y-105128762D02*
X136330333Y-105033524D01*
X136282714Y-104985905D01*
X136187476Y-104938286D01*
X136139857Y-104938286D01*
X136044619Y-104985905D01*
X135997000Y-105033524D01*
X135949381Y-105128762D01*
X135949381Y-105319239D01*
X135997000Y-105414477D01*
X136044619Y-105462096D01*
X136139857Y-105509715D01*
X136187476Y-105509715D01*
X136282714Y-105462096D01*
X136330333Y-105414477D01*
X136377952Y-105319239D01*
X136377952Y-105128762D01*
X136425571Y-105033524D01*
X136473190Y-104985905D01*
X136568429Y-104938286D01*
X136758905Y-104938286D01*
X136854143Y-104985905D01*
X136901762Y-105033524D01*
X136949381Y-105128762D01*
X136949381Y-105319239D01*
X136901762Y-105414477D01*
X136854143Y-105462096D01*
X136758905Y-105509715D01*
X136568429Y-105509715D01*
X136473190Y-105462096D01*
X136425571Y-105414477D01*
X136377952Y-105319239D01*
X136621381Y-118654334D02*
X136145190Y-118321000D01*
X136621381Y-118082905D02*
X135621381Y-118082905D01*
X135621381Y-118463858D01*
X135669000Y-118559096D01*
X135716619Y-118606715D01*
X135811857Y-118654334D01*
X135954714Y-118654334D01*
X136049952Y-118606715D01*
X136097571Y-118559096D01*
X136145190Y-118463858D01*
X136145190Y-118082905D01*
X136621381Y-119130524D02*
X136621381Y-119321000D01*
X136573762Y-119416239D01*
X136526143Y-119463858D01*
X136383286Y-119559096D01*
X136192810Y-119606715D01*
X135811857Y-119606715D01*
X135716619Y-119559096D01*
X135669000Y-119511477D01*
X135621381Y-119416239D01*
X135621381Y-119225762D01*
X135669000Y-119130524D01*
X135716619Y-119082905D01*
X135811857Y-119035286D01*
X136049952Y-119035286D01*
X136145190Y-119082905D01*
X136192810Y-119130524D01*
X136240429Y-119225762D01*
X136240429Y-119416239D01*
X136192810Y-119511477D01*
X136145190Y-119559096D01*
X136049952Y-119606715D01*
X141500381Y-104081143D02*
X141024190Y-103747809D01*
X141500381Y-103509714D02*
X140500381Y-103509714D01*
X140500381Y-103890667D01*
X140548000Y-103985905D01*
X140595619Y-104033524D01*
X140690857Y-104081143D01*
X140833714Y-104081143D01*
X140928952Y-104033524D01*
X140976571Y-103985905D01*
X141024190Y-103890667D01*
X141024190Y-103509714D01*
X141500381Y-105033524D02*
X141500381Y-104462095D01*
X141500381Y-104747809D02*
X140500381Y-104747809D01*
X140643238Y-104652571D01*
X140738476Y-104557333D01*
X140786095Y-104462095D01*
X140500381Y-105652571D02*
X140500381Y-105747810D01*
X140548000Y-105843048D01*
X140595619Y-105890667D01*
X140690857Y-105938286D01*
X140881333Y-105985905D01*
X141119429Y-105985905D01*
X141309905Y-105938286D01*
X141405143Y-105890667D01*
X141452762Y-105843048D01*
X141500381Y-105747810D01*
X141500381Y-105652571D01*
X141452762Y-105557333D01*
X141405143Y-105509714D01*
X141309905Y-105462095D01*
X141119429Y-105414476D01*
X140881333Y-105414476D01*
X140690857Y-105462095D01*
X140595619Y-105509714D01*
X140548000Y-105557333D01*
X140500381Y-105652571D01*
X142272857Y-97810581D02*
X142606191Y-97334390D01*
X142844286Y-97810581D02*
X142844286Y-96810581D01*
X142463333Y-96810581D01*
X142368095Y-96858200D01*
X142320476Y-96905819D01*
X142272857Y-97001057D01*
X142272857Y-97143914D01*
X142320476Y-97239152D01*
X142368095Y-97286771D01*
X142463333Y-97334390D01*
X142844286Y-97334390D01*
X141320476Y-97810581D02*
X141891905Y-97810581D01*
X141606191Y-97810581D02*
X141606191Y-96810581D01*
X141701429Y-96953438D01*
X141796667Y-97048676D01*
X141891905Y-97096295D01*
X140939524Y-96905819D02*
X140891905Y-96858200D01*
X140796667Y-96810581D01*
X140558571Y-96810581D01*
X140463333Y-96858200D01*
X140415714Y-96905819D01*
X140368095Y-97001057D01*
X140368095Y-97096295D01*
X140415714Y-97239152D01*
X140987143Y-97810581D01*
X140368095Y-97810581D01*
X157290666Y-110669143D02*
X157338285Y-110716762D01*
X157481142Y-110764381D01*
X157576380Y-110764381D01*
X157719238Y-110716762D01*
X157814476Y-110621524D01*
X157862095Y-110526286D01*
X157909714Y-110335810D01*
X157909714Y-110192952D01*
X157862095Y-110002476D01*
X157814476Y-109907238D01*
X157719238Y-109812000D01*
X157576380Y-109764381D01*
X157481142Y-109764381D01*
X157338285Y-109812000D01*
X157290666Y-109859619D01*
X156909714Y-109859619D02*
X156862095Y-109812000D01*
X156766857Y-109764381D01*
X156528761Y-109764381D01*
X156433523Y-109812000D01*
X156385904Y-109859619D01*
X156338285Y-109954857D01*
X156338285Y-110050095D01*
X156385904Y-110192952D01*
X156957333Y-110764381D01*
X156338285Y-110764381D01*
X153607666Y-126798143D02*
X153655285Y-126845762D01*
X153798142Y-126893381D01*
X153893380Y-126893381D01*
X154036238Y-126845762D01*
X154131476Y-126750524D01*
X154179095Y-126655286D01*
X154226714Y-126464810D01*
X154226714Y-126321952D01*
X154179095Y-126131476D01*
X154131476Y-126036238D01*
X154036238Y-125941000D01*
X153893380Y-125893381D01*
X153798142Y-125893381D01*
X153655285Y-125941000D01*
X153607666Y-125988619D01*
X153036238Y-126321952D02*
X153131476Y-126274333D01*
X153179095Y-126226714D01*
X153226714Y-126131476D01*
X153226714Y-126083857D01*
X153179095Y-125988619D01*
X153131476Y-125941000D01*
X153036238Y-125893381D01*
X152845761Y-125893381D01*
X152750523Y-125941000D01*
X152702904Y-125988619D01*
X152655285Y-126083857D01*
X152655285Y-126131476D01*
X152702904Y-126226714D01*
X152750523Y-126274333D01*
X152845761Y-126321952D01*
X153036238Y-126321952D01*
X153131476Y-126369571D01*
X153179095Y-126417190D01*
X153226714Y-126512429D01*
X153226714Y-126702905D01*
X153179095Y-126798143D01*
X153131476Y-126845762D01*
X153036238Y-126893381D01*
X152845761Y-126893381D01*
X152750523Y-126845762D01*
X152702904Y-126798143D01*
X152655285Y-126702905D01*
X152655285Y-126512429D01*
X152702904Y-126417190D01*
X152750523Y-126369571D01*
X152845761Y-126321952D01*
X158687666Y-125274143D02*
X158735285Y-125321762D01*
X158878142Y-125369381D01*
X158973380Y-125369381D01*
X159116238Y-125321762D01*
X159211476Y-125226524D01*
X159259095Y-125131286D01*
X159306714Y-124940810D01*
X159306714Y-124797952D01*
X159259095Y-124607476D01*
X159211476Y-124512238D01*
X159116238Y-124417000D01*
X158973380Y-124369381D01*
X158878142Y-124369381D01*
X158735285Y-124417000D01*
X158687666Y-124464619D01*
X158211476Y-125369381D02*
X158021000Y-125369381D01*
X157925761Y-125321762D01*
X157878142Y-125274143D01*
X157782904Y-125131286D01*
X157735285Y-124940810D01*
X157735285Y-124559857D01*
X157782904Y-124464619D01*
X157830523Y-124417000D01*
X157925761Y-124369381D01*
X158116238Y-124369381D01*
X158211476Y-124417000D01*
X158259095Y-124464619D01*
X158306714Y-124559857D01*
X158306714Y-124797952D01*
X158259095Y-124893190D01*
X158211476Y-124940810D01*
X158116238Y-124988429D01*
X157925761Y-124988429D01*
X157830523Y-124940810D01*
X157782904Y-124893190D01*
X157735285Y-124797952D01*
X143923857Y-126798143D02*
X143971476Y-126845762D01*
X144114333Y-126893381D01*
X144209571Y-126893381D01*
X144352429Y-126845762D01*
X144447667Y-126750524D01*
X144495286Y-126655286D01*
X144542905Y-126464810D01*
X144542905Y-126321952D01*
X144495286Y-126131476D01*
X144447667Y-126036238D01*
X144352429Y-125941000D01*
X144209571Y-125893381D01*
X144114333Y-125893381D01*
X143971476Y-125941000D01*
X143923857Y-125988619D01*
X142971476Y-126893381D02*
X143542905Y-126893381D01*
X143257191Y-126893381D02*
X143257191Y-125893381D01*
X143352429Y-126036238D01*
X143447667Y-126131476D01*
X143542905Y-126179095D01*
X142352429Y-125893381D02*
X142257190Y-125893381D01*
X142161952Y-125941000D01*
X142114333Y-125988619D01*
X142066714Y-126083857D01*
X142019095Y-126274333D01*
X142019095Y-126512429D01*
X142066714Y-126702905D01*
X142114333Y-126798143D01*
X142161952Y-126845762D01*
X142257190Y-126893381D01*
X142352429Y-126893381D01*
X142447667Y-126845762D01*
X142495286Y-126798143D01*
X142542905Y-126702905D01*
X142590524Y-126512429D01*
X142590524Y-126274333D01*
X142542905Y-126083857D01*
X142495286Y-125988619D01*
X142447667Y-125941000D01*
X142352429Y-125893381D01*
X138812143Y-123512143D02*
X138859762Y-123464524D01*
X138907381Y-123321667D01*
X138907381Y-123226429D01*
X138859762Y-123083571D01*
X138764524Y-122988333D01*
X138669286Y-122940714D01*
X138478810Y-122893095D01*
X138335952Y-122893095D01*
X138145476Y-122940714D01*
X138050238Y-122988333D01*
X137955000Y-123083571D01*
X137907381Y-123226429D01*
X137907381Y-123321667D01*
X137955000Y-123464524D01*
X138002619Y-123512143D01*
X138907381Y-124464524D02*
X138907381Y-123893095D01*
X138907381Y-124178809D02*
X137907381Y-124178809D01*
X138050238Y-124083571D01*
X138145476Y-123988333D01*
X138193095Y-123893095D01*
X138907381Y-125416905D02*
X138907381Y-124845476D01*
X138907381Y-125131190D02*
X137907381Y-125131190D01*
X138050238Y-125035952D01*
X138145476Y-124940714D01*
X138193095Y-124845476D01*
X142622143Y-94048343D02*
X142669762Y-94000724D01*
X142717381Y-93857867D01*
X142717381Y-93762629D01*
X142669762Y-93619771D01*
X142574524Y-93524533D01*
X142479286Y-93476914D01*
X142288810Y-93429295D01*
X142145952Y-93429295D01*
X141955476Y-93476914D01*
X141860238Y-93524533D01*
X141765000Y-93619771D01*
X141717381Y-93762629D01*
X141717381Y-93857867D01*
X141765000Y-94000724D01*
X141812619Y-94048343D01*
X142717381Y-95000724D02*
X142717381Y-94429295D01*
X142717381Y-94715009D02*
X141717381Y-94715009D01*
X141860238Y-94619771D01*
X141955476Y-94524533D01*
X142003095Y-94429295D01*
X141812619Y-95381676D02*
X141765000Y-95429295D01*
X141717381Y-95524533D01*
X141717381Y-95762629D01*
X141765000Y-95857867D01*
X141812619Y-95905486D01*
X141907857Y-95953105D01*
X142003095Y-95953105D01*
X142145952Y-95905486D01*
X142717381Y-95334057D01*
X142717381Y-95953105D01*
X134652857Y-92909343D02*
X134700476Y-92956962D01*
X134843333Y-93004581D01*
X134938571Y-93004581D01*
X135081429Y-92956962D01*
X135176667Y-92861724D01*
X135224286Y-92766486D01*
X135271905Y-92576010D01*
X135271905Y-92433152D01*
X135224286Y-92242676D01*
X135176667Y-92147438D01*
X135081429Y-92052200D01*
X134938571Y-92004581D01*
X134843333Y-92004581D01*
X134700476Y-92052200D01*
X134652857Y-92099819D01*
X133700476Y-93004581D02*
X134271905Y-93004581D01*
X133986191Y-93004581D02*
X133986191Y-92004581D01*
X134081429Y-92147438D01*
X134176667Y-92242676D01*
X134271905Y-92290295D01*
X133367143Y-92004581D02*
X132748095Y-92004581D01*
X133081429Y-92385533D01*
X132938571Y-92385533D01*
X132843333Y-92433152D01*
X132795714Y-92480771D01*
X132748095Y-92576010D01*
X132748095Y-92814105D01*
X132795714Y-92909343D01*
X132843333Y-92956962D01*
X132938571Y-93004581D01*
X133224286Y-93004581D01*
X133319524Y-92956962D01*
X133367143Y-92909343D01*
D14*
X135582381Y-113426524D02*
X135582381Y-112156524D01*
X135280000Y-112156524D01*
X135098572Y-112217000D01*
X134977619Y-112337952D01*
X134917143Y-112458905D01*
X134856667Y-112700810D01*
X134856667Y-112882238D01*
X134917143Y-113124143D01*
X134977619Y-113245095D01*
X135098572Y-113366048D01*
X135280000Y-113426524D01*
X135582381Y-113426524D01*
X133768095Y-112579857D02*
X133768095Y-113426524D01*
X134070476Y-112096048D02*
X134372857Y-113003190D01*
X133586667Y-113003190D01*
D10*
X150326476Y-111618286D02*
X149903143Y-111618286D01*
X149721714Y-112283524D02*
X150326476Y-112283524D01*
X150326476Y-111013524D01*
X149721714Y-111013524D01*
X149298380Y-111013524D02*
X148451714Y-112283524D01*
X148451714Y-111013524D02*
X149298380Y-112283524D01*
X148149333Y-111013524D02*
X147423618Y-111013524D01*
X147786475Y-112283524D02*
X147786475Y-111013524D01*
X147060761Y-111134476D02*
X147000285Y-111074000D01*
X146879333Y-111013524D01*
X146576952Y-111013524D01*
X146455999Y-111074000D01*
X146395523Y-111134476D01*
X146335047Y-111255429D01*
X146335047Y-111376381D01*
X146395523Y-111557810D01*
X147121237Y-112283524D01*
X146335047Y-112283524D01*
X141563476Y-108159048D02*
X141503000Y-108038095D01*
X141382048Y-107917143D01*
X141200619Y-107735714D01*
X141140143Y-107614762D01*
X141140143Y-107493810D01*
X141442524Y-107554286D02*
X141382048Y-107433333D01*
X141261095Y-107312381D01*
X141019190Y-107251905D01*
X140595857Y-107251905D01*
X140353952Y-107312381D01*
X140233000Y-107433333D01*
X140172524Y-107554286D01*
X140172524Y-107796190D01*
X140233000Y-107917143D01*
X140353952Y-108038095D01*
X140595857Y-108098571D01*
X141019190Y-108098571D01*
X141261095Y-108038095D01*
X141382048Y-107917143D01*
X141442524Y-107796190D01*
X141442524Y-107554286D01*
X141442524Y-109308095D02*
X141442524Y-108582381D01*
X141442524Y-108945238D02*
X140172524Y-108945238D01*
X140353952Y-108824286D01*
X140474905Y-108703333D01*
X140535381Y-108582381D01*
X131590952Y-109991476D02*
X131711905Y-109931000D01*
X131832857Y-109810048D01*
X132014286Y-109628619D01*
X132135238Y-109568143D01*
X132256190Y-109568143D01*
X132195714Y-109870524D02*
X132316667Y-109810048D01*
X132437619Y-109689095D01*
X132498095Y-109447190D01*
X132498095Y-109023857D01*
X132437619Y-108781952D01*
X132316667Y-108661000D01*
X132195714Y-108600524D01*
X131953810Y-108600524D01*
X131832857Y-108661000D01*
X131711905Y-108781952D01*
X131651429Y-109023857D01*
X131651429Y-109447190D01*
X131711905Y-109689095D01*
X131832857Y-109810048D01*
X131953810Y-109870524D01*
X132195714Y-109870524D01*
X131167619Y-108721476D02*
X131107143Y-108661000D01*
X130986191Y-108600524D01*
X130683810Y-108600524D01*
X130562857Y-108661000D01*
X130502381Y-108721476D01*
X130441905Y-108842429D01*
X130441905Y-108963381D01*
X130502381Y-109144810D01*
X131228095Y-109870524D01*
X130441905Y-109870524D01*
D14*
X159887762Y-105171524D02*
X159887762Y-103901524D01*
X158557286Y-105050571D02*
X158617762Y-105111048D01*
X158799191Y-105171524D01*
X158920143Y-105171524D01*
X159101571Y-105111048D01*
X159222524Y-104990095D01*
X159283000Y-104869143D01*
X159343476Y-104627238D01*
X159343476Y-104445810D01*
X159283000Y-104203905D01*
X159222524Y-104082952D01*
X159101571Y-103962000D01*
X158920143Y-103901524D01*
X158799191Y-103901524D01*
X158617762Y-103962000D01*
X158557286Y-104022476D01*
X157347762Y-105171524D02*
X158073476Y-105171524D01*
X157710619Y-105171524D02*
X157710619Y-103901524D01*
X157831571Y-104082952D01*
X157952524Y-104203905D01*
X158073476Y-104264381D01*
M02*
